<svg xmlns="http://www.w3.org/2000/svg" xmlns:xlink="http://www.w3.org/1999/xlink" xmlns:lucid="lucid" width="1296.14" height="935.75"><g transform="translate(1356.1356966145834 280)" lucid:page-tab-id="0_0"><path d="M-1500-500H0v1500h-1500z" fill="#fff"/><path d="M-520-80c22.1 0 40 17.9 40 40s-17.9 40-40 40h-80c-22.1 0-40-17.9-40-40s17.9-40 40-40z" stroke="#000" stroke-width="2" fill="#b8f5ed"/><use xlink:href="#a" transform="matrix(1,0,0,1,-635,-75) translate(42.6025390625 42.275390625)"/><path d="M-465.67-230.58a8 8 0 0 1 8-8h105.05a8 8 0 0 1 8 8v18.2a8 8 0 0 1-8 8h-105.05a8 8 0 0 1-8-8z" fill="none"/><use xlink:href="#b" transform="matrix(1,0,0,1,-460.66965928819445,-233.58345052083334) translate(0 19.775390625)"/><use xlink:href="#c" transform="matrix(1,0,0,1,-460.66965928819445,-233.58345052083334) translate(50.634765625 19.775390625)"/><path d="M-886.4-275.2a10.67 10.67 0 0 1 12.8 0l67.2 50.4a6 6 0 0 1 0 9.6l-67.2 50.4a10.67 10.67 0 0 1-12.8 0l-67.2-50.4a6 6 0 0 1 0-9.6z" stroke="#000" stroke-width="2" fill="#fcfcca"/><use xlink:href="#d" transform="matrix(1,0,0,1,-955,-275) translate(20.611979166666664 61.46701388888889)"/><use xlink:href="#e" transform="matrix(1,0,0,1,-955,-275) translate(65.87239583333333 61.46701388888889)"/><path d="M-802.5-220H-572a12 12 0 0 1 12 12v110.62" stroke="#3a414a" fill="none"/><path d="M-802.48-219.53h-.56l.04-.47-.04-.47h.56z" stroke="#3a414a" stroke-width=".05" fill="#3a414a"/><path d="M-560-82.62l-4.63-14.26h9.26z" stroke="#3a414a" fill="#3a414a"/><path d="M-466.17-221.48h-57.34a12 12 0 0 0-12 12v112.1" stroke="#3a414a" fill="none"/><path d="M-465.67-221h-.5v-.95h.5z" stroke="#3a414a" stroke-width=".05" fill="#3a414a"/><path d="M-535.5-82.62l-4.65-14.26h9.27z" stroke="#3a414a" fill="#3a414a"/><path d="M-680 80c22.1 0 40 17.9 40 40s-17.9 40-40 40h-80c-22.1 0-40-17.9-40-40s17.9-40 40-40z" stroke="#000" stroke-width="2" fill="#b8f5ed"/><use xlink:href="#f" transform="matrix(1,0,0,1,-795,85) translate(11.07421875 42.275390625)"/><use xlink:href="#c" transform="matrix(1,0,0,1,-795,85) translate(78.525390625 42.275390625)"/><path d="M-360 560c22.1 0 40 17.9 40 40s-17.9 40-40 40h-80c-22.1 0-40-17.9-40-40s17.9-40 40-40z" stroke="#000" stroke-width="2" fill="#b8f5ed"/><use xlink:href="#g" transform="matrix(1,0,0,1,-475,565) translate(30.0927734375 42.275390625)"/><path d="M-641.5-40H-708a12 12 0 0 0-12 12v90.62" stroke="#3a414a" fill="none"/><path d="M-641-40l.02.48h-.53v-.95h.53z" stroke="#3a414a" stroke-width=".05" fill="#3a414a"/><path d="M-720 77.38l-4.63-14.26h9.26z" stroke="#3a414a" fill="#3a414a"/><path d="M-478.5-40h66.5a12 12 0 0 1 12 12v570.62" stroke="#3a414a" fill="none"/><path d="M-478.5-39.52h-.53l.03-.47-.02-.48h.53z" stroke="#3a414a" stroke-width=".05" fill="#3a414a"/><path d="M-400 557.38l-4.63-14.26h9.26z" stroke="#3a414a" fill="#3a414a"/><path d="M-840 237.17c22.1 0 40 17.9 40 40s-17.9 40-40 40h-80c-22.1 0-40-17.9-40-40s17.9-40 40-40z" stroke="#000" stroke-width="2" fill="#b8f5ed"/><use xlink:href="#h" transform="matrix(1,0,0,1,-955,242.16690104166662) translate(34.53125 42.275390625)"/><path d="M-840 400c22.1 0 40 17.9 40 40s-17.9 40-40 40h-80c-22.1 0-40-17.9-40-40s17.9-40 40-40z" stroke="#000" stroke-width="2" fill="#b8f5ed"/><use xlink:href="#i" transform="matrix(1,0,0,1,-955,405) translate(35.2685546875 42.275390625)"/><path d="M-801.5 120H-868a12 12 0 0 0-12 12v87.78" stroke="#3a414a" fill="none"/><path d="M-801 120l.02.47h-.53v-.94h.53z" stroke="#3a414a" stroke-width=".05" fill="#3a414a"/><path d="M-880 234.55l-4.63-14.27h9.26z" stroke="#3a414a" fill="#3a414a"/><path d="M-798.5 440h27.5a12 12 0 0 0 12-12V289.17a12 12 0 0 0-12-12h-11.62" stroke="#3a414a" fill="none"/><path d="M-798.5 440.48h-.53l.03-.47-.02-.48h.53z" stroke="#3a414a" stroke-width=".05" fill="#3a414a"/><path d="M-797.38 277.17l14.26-4.64v9.27z" stroke="#3a414a" fill="#3a414a"/><path d="M-880 481.5V588a12 12 0 0 0 12 12h370.6" stroke="#3a414a" fill="none"/><path d="M-879.52 481.5h-.96v-.5h.96z" stroke="#3a414a" stroke-width=".05" fill="#3a414a"/><path d="M-482.62 600l-14.26 4.63v-9.26z" stroke="#3a414a" fill="#3a414a"/><path d="M-380 208a8 8 0 0 1 8-8h304a8 8 0 0 1 8 8v86.34a8 8 0 0 1-8 8h-304a8 8 0 0 1-8-8z" fill="none"/><use xlink:href="#j" transform="matrix(1,0,0,1,-375,205) translate(0 53.775390625)"/><use xlink:href="#k" transform="matrix(1,0,0,1,-375,205) translate(70.830078125 53.775390625)"/><use xlink:href="#l" transform="matrix(1,0,0,1,-375,205) translate(103.515625 53.775390625)"/><use xlink:href="#m" transform="matrix(1,0,0,1,-375,205) translate(185.712890625 53.775390625)"/><path d="M-740 348a8 8 0 0 1 8-8h254.2a8 8 0 0 1 8 8v21.17a8 8 0 0 1-8 8H-732a8 8 0 0 1-8-8z" fill="none"/><use xlink:href="#n" transform="matrix(1,0,0,1,-735,345) translate(0 22.16460503472222)"/><use xlink:href="#o" transform="matrix(1,0,0,1,-735,345) translate(138.67773437499997 22.16460503472222)"/><use xlink:href="#p" transform="matrix(1,0,0,1,-735,345) translate(225.34309895833331 22.16460503472222)"/><use xlink:href="#q" transform="matrix(1,0,0,1,-735,345) translate(246.50531684027774 22.16460503472222)"/><path d="M-200 589.42a8 8 0 0 1 8-8h35.76a8 8 0 0 1 8 8v21.16a8 8 0 0 1-8 8H-192a8 8 0 0 1-8-8z" fill="none"/><use xlink:href="#r" transform="matrix(1,0,0,1,-195,586.4165494791666) translate(0 22.16460503472222)"/><path d="M-318.5 600h102.12" stroke="#3a414a" fill="none"/><path d="M-318.5 600.48h-.53l.03-.47-.02-.48h.53z" stroke="#3a414a" stroke-width=".05" fill="#3a414a"/><path d="M-201.62 600l-14.26 4.63v-9.26z" stroke="#3a414a" fill="#3a414a"/><path d="M-880 318.67v63.95" stroke="#3a414a" fill="none"/><path d="M-879.52 318.68h-.96v-.5h.96z" stroke="#3a414a" stroke-width=".05" fill="#3a414a"/><path d="M-880 397.38l-4.63-14.26h9.26z" stroke="#3a414a" fill="#3a414a"/><path d="M-1120 341.17c0 8.83-35.82 16-80 16s-80-7.17-80-16v-128c0-8.84 35.82-16 80-16s80 7.16 80 16z" stroke="#000" stroke-width="2" fill="#ffdda6"/><path d="M-1120 213.17c0 8.83-35.82 16-80 16s-80-7.17-80-16" stroke="#000" stroke-width="2" fill="none"/><use xlink:href="#s" transform="matrix(1,0,0,1,-1275,234.16690104166662) translate(16.24772135416668 67.16460503472223)"/><path d="M-1118.5 301.66H-969.17" stroke="#3a414a" fill="none"/><path d="M-1118.5 302.14h-.5v-.95h.5z" stroke="#3a414a" stroke-width=".05" fill="#3a414a"/><path d="M-954.4 301.66l-14.27 4.64v-9.27z" stroke="#3a414a" fill="#3a414a"/><path d="M-961.5 277.17h-141.12" stroke="#3a414a" fill="none"/><path d="M-961 277.15l.02.5h-.53v-.96h.53z" stroke="#3a414a" stroke-width=".05" fill="#3a414a"/><path d="M-1117.38 277.17l14.26-4.64v9.27z" stroke="#3a414a" fill="#3a414a"/><path d="M-1356.14 385.17a8 8 0 0 1 8-8h296.28a8 8 0 0 1 8 8v216.7a8 8 0 0 1-8 8h-296.28a8 8 0 0 1-8-8z" fill="none"/><g><use xlink:href="#t" transform="matrix(1,0,0,1,-1351.1356966145834,382.1669010416667) translate(77.93636067708336 21.89976128472224)"/><use xlink:href="#u" transform="matrix(1,0,0,1,-1351.1356966145834,382.1669010416667) translate(131.21999782986111 21.89976128472224)"/><use xlink:href="#v" transform="matrix(1,0,0,1,-1351.1356966145834,382.1669010416667) translate(4.909722222222221 54.48804253472223)"/><use xlink:href="#w" transform="matrix(1,0,0,1,-1351.1356966145834,382.1669010416667) translate(22.44444444444444 54.48804253472223)"/><use xlink:href="#x" transform="matrix(1,0,0,1,-1351.1356966145834,382.1669010416667) translate(57.075520833333314 54.48804253472223)"/><use xlink:href="#y" transform="matrix(1,0,0,1,-1351.1356966145834,382.1669010416667) translate(99.90407986111109 54.48804253472223)"/><use xlink:href="#z" transform="matrix(1,0,0,1,-1351.1356966145834,382.1669010416667) translate(112.68250868055553 54.48804253472223)"/><use xlink:href="#A" transform="matrix(1,0,0,1,-1351.1356966145834,382.1669010416667) translate(192.31206597222217 54.48804253472223)"/><use xlink:href="#B" transform="matrix(1,0,0,1,-1351.1356966145834,382.1669010416667) translate(22.44444444444444 87.07632378472223)"/><use xlink:href="#C" transform="matrix(1,0,0,1,-1351.1356966145834,382.1669010416667) translate(141.80110677083331 87.07632378472223)"/><use xlink:href="#D" transform="matrix(1,0,0,1,-1351.1356966145834,382.1669010416667) translate(182.43782552083331 87.07632378472223)"/><use xlink:href="#E" transform="matrix(1,0,0,1,-1351.1356966145834,382.1669010416667) translate(212.0386284722222 87.07632378472223)"/><use xlink:href="#F" transform="matrix(1,0,0,1,-1351.1356966145834,382.1669010416667) translate(22.44444444444444 119.66460503472223)"/><use xlink:href="#G" transform="matrix(1,0,0,1,-1351.1356966145834,382.1669010416667) translate(66.9607204861111 119.66460503472223)"/><use xlink:href="#v" transform="matrix(1,0,0,1,-1351.1356966145834,382.1669010416667) translate(4.909722222222221 152.2528862847222)"/><use xlink:href="#H" transform="matrix(1,0,0,1,-1351.1356966145834,382.1669010416667) translate(22.44444444444444 152.2528862847222)"/><use xlink:href="#I" transform="matrix(1,0,0,1,-1351.1356966145834,382.1669010416667) translate(69.44845920138887 152.2528862847222)"/><use xlink:href="#J" transform="matrix(1,0,0,1,-1351.1356966145834,382.1669010416667) translate(118.74294704861109 152.2528862847222)"/><use xlink:href="#K" transform="matrix(1,0,0,1,-1351.1356966145834,382.1669010416667) translate(184.42144097222217 152.2528862847222)"/><use xlink:href="#L" transform="matrix(1,0,0,1,-1351.1356966145834,382.1669010416667) translate(243.29427083333326 152.2528862847222)"/><use xlink:href="#M" transform="matrix(1,0,0,1,-1351.1356966145834,382.1669010416667) translate(22.44444444444444 184.84116753472222)"/><use xlink:href="#N" transform="matrix(1,0,0,1,-1351.1356966145834,382.1669010416667) translate(88.52842881944443 184.84116753472222)"/><use xlink:href="#O" transform="matrix(1,0,0,1,-1351.1356966145834,382.1669010416667) translate(101.30685763888887 184.84116753472222)"/><use xlink:href="#P" transform="matrix(1,0,0,1,-1351.1356966145834,382.1669010416667) translate(134.33789062499997 184.84116753472222)"/><use xlink:href="#Q" transform="matrix(1,0,0,1,-1351.1356966145834,382.1669010416667) translate(22.44444444444444 217.42944878472218)"/><use xlink:href="#R" transform="matrix(1,0,0,1,-1351.1356966145834,382.1669010416667) translate(50.66438802083333 217.42944878472218)"/></g><path d="M-842.8 626.58a8 8 0 0 1 8-8h286.2a8 8 0 0 1 8 8v21.17a8 8 0 0 1-8 8h-286.2a8 8 0 0 1-8-8z" fill="none"/><g><use xlink:href="#S" transform="matrix(1,0,0,1,-837.809353298611,623.5834505208333) translate(0 22.16460503472222)"/><use xlink:href="#T" transform="matrix(1,0,0,1,-837.809353298611,623.5834505208333) translate(109.90983072916666 22.16460503472222)"/><use xlink:href="#U" transform="matrix(1,0,0,1,-837.809353298611,623.5834505208333) translate(134.96733940972223 22.16460503472222)"/><use xlink:href="#V" transform="matrix(1,0,0,1,-837.809353298611,623.5834505208333) translate(167.54437934027777 22.16460503472222)"/><use xlink:href="#W" transform="matrix(1,0,0,1,-837.809353298611,623.5834505208333) translate(227.60948350694446 22.16460503472222)"/><use xlink:href="#X" transform="matrix(1,0,0,1,-837.809353298611,623.5834505208333) translate(267.98708767361114 22.16460503472222)"/></g><defs><path d="M135 0v-1490h581c339 0 533 192 533 485 0 204-94 351-264 424L1302 0H964L680-532H440V0H135zm305-779h220c186 0 274-77 274-226 0-150-88-233-275-233H440v459" id="Y"/><path d="M628 22C291 22 81-210 81-554c0-346 210-578 547-578 336 0 547 232 547 578 0 344-211 576-547 576zm0-236c160 0 242-146 242-341 0-197-82-341-242-341S387-753 387-555c0 195 81 341 241 341" id="Z"/><path d="M513 14c-232 0-385-159-385-421v-711h300v659c0 139 76 222 202 222 127 0 217-86 217-234v-647h301V0H864l-4-232C797-74 683 14 513 14" id="aa"/><path d="M683-1118v229H474v562c0 71 29 104 102 104 23 0 73-7 95-13l43 225C647 9 580 16 520 16 296 16 174-96 174-301v-588H20v-229h154v-266h300v266h209" id="ab"/><path d="M633 22C291 22 81-200 81-553c0-345 210-579 537-579 292 0 525 185 525 567v84H378c7 183 109 277 260 277 105 0 184-46 216-132l272 51C1071-99 893 22 633 22zM380-669h474c-15-146-94-237-233-237-143 0-229 99-241 237" id="ac"/><path d="M128 0v-1118h290v195h12c54-169 184-238 367-200v268c-27-8-86-15-130-15-138 0-239 95-239 234V0H128" id="ad"/><g id="a"><use transform="matrix(0.009765625,0,0,0.009765625,0,0)" xlink:href="#Y"/><use transform="matrix(0.009765625,0,0,0.009765625,12.890625,0)" xlink:href="#Z"/><use transform="matrix(0.009765625,0,0,0.009765625,25.15625,0)" xlink:href="#aa"/><use transform="matrix(0.009765625,0,0,0.009765625,37.607421875,0)" xlink:href="#ab"/><use transform="matrix(0.009765625,0,0,0.009765625,44.736328125,0)" xlink:href="#ac"/><use transform="matrix(0.009765625,0,0,0.009765625,56.650390625,0)" xlink:href="#ad"/></g><path d="M750 21c-371 0-615-218-615-544v-967h305v942c0 174 123 299 310 299s309-125 309-299v-942h306v967c0 326-247 544-615 544" id="ae"/><path d="M572 22C302 22 117-98 78-306l279-48c29 105 101 156 224 156 114 0 185-48 185-115 0-118-228-130-337-155-215-49-322-150-322-317 0-215 187-347 470-347 265 0 424 116 466 298l-266 47c-24-76-87-130-196-130-98 0-174 46-174 113 0 56 38 95 144 117l201 40c216 44 320 143 320 302 0 220-207 367-500 367" id="af"/><g id="b"><use transform="matrix(0.009765625,0,0,0.009765625,0,0)" xlink:href="#ae"/><use transform="matrix(0.009765625,0,0,0.009765625,14.638671875,0)" xlink:href="#af"/><use transform="matrix(0.009765625,0,0,0.009765625,25.83984375,0)" xlink:href="#ac"/><use transform="matrix(0.009765625,0,0,0.009765625,37.75390625,0)" xlink:href="#ad"/></g><path d="M789 20C394 20 94-260 94-744c0-487 300-766 695-766s695 279 695 766c0 264-89 467-233 597l215 271h-285L1058-29C976 3 886 20 789 20zm-94-532h261l108 139c70-83 110-208 110-371 0-321-154-495-385-495s-385 175-385 495c0 356 184 537 481 482" id="ag"/><path d="M120 396l69-226c123 42 245 23 254-107l8-60L31-1118h319c87 288 199 559 259 872 72-308 185-583 277-872h315L726 132c-68 181-186 294-410 294-79 0-153-13-196-30" id="ah"/><g id="c"><use transform="matrix(0.009765625,0,0,0.009765625,0,0)" xlink:href="#ag"/><use transform="matrix(0.009765625,0,0,0.009765625,15.537109375,0)" xlink:href="#aa"/><use transform="matrix(0.009765625,0,0,0.009765625,27.98828125,0)" xlink:href="#ac"/><use transform="matrix(0.009765625,0,0,0.009765625,39.90234375,0)" xlink:href="#ad"/><use transform="matrix(0.009765625,0,0,0.009765625,48.359375,0)" xlink:href="#ah"/></g><path d="M786 20C389 20 94-260 94-744c0-487 299-766 692-766 339 0 597 194 641 529h-309c-28-162-156-258-326-258-233 0-388 179-388 495 0 323 157 493 387 493 170 0 298-97 328-259h309c-34 277-266 530-642 530" id="ai"/><path d="M428-647V0H128v-1490h294v586c65-146 175-228 341-228 232 0 385 159 385 421V0H847v-659c0-139-76-222-202-222-128 0-217 86-217 234" id="aj"/><path d="M440 22C227 22 68-92 68-313c0-250 202-322 422-343 195-21 271-24 271-105 0-95-63-149-175-149-116 0-187 57-211 129l-275-46c57-194 237-305 487-305 240 0 474 108 474 379V0H777v-155h-10C713-51 605 22 440 22zm85-211c140 0 238-93 238-211v-121c-37 26-156 42-222 51-111 16-185 59-185 149 0 87 70 132 169 132" id="ak"/><g id="d"><use transform="matrix(0.008680555555555556,0,0,0.008680555555555556,0,0)" xlink:href="#ai"/><use transform="matrix(0.008680555555555556,0,0,0.008680555555555556,13.151041666666668,0)" xlink:href="#aj"/><use transform="matrix(0.008680555555555556,0,0,0.008680555555555556,24.21875,0)" xlink:href="#ak"/><use transform="matrix(0.008680555555555556,0,0,0.008680555555555556,34.53993055555556,0)" xlink:href="#ab"/></g><path d="M135 0v-1490h305v602h649v-602h306V0h-306v-635H440V0H135" id="al"/><path d="M128 0v-1118h300V0H128zm150-1264c-91 0-165-68-165-154 0-85 74-154 165-154 90 0 165 69 165 154 0 86-75 154-165 154" id="am"/><g id="e"><use transform="matrix(0.008680555555555556,0,0,0.008680555555555556,0,0)" xlink:href="#al"/><use transform="matrix(0.008680555555555556,0,0,0.008680555555555556,13.28125,0)" xlink:href="#am"/><use transform="matrix(0.008680555555555556,0,0,0.008680555555555556,18.098958333333336,0)" xlink:href="#af"/><use transform="matrix(0.008680555555555556,0,0,0.008680555555555556,28.055555555555557,0)" xlink:href="#ab"/><use transform="matrix(0.008680555555555556,0,0,0.008680555555555556,34.392361111111114,0)" xlink:href="#Z"/><use transform="matrix(0.008680555555555556,0,0,0.008680555555555556,45.29513888888889,0)" xlink:href="#ad"/><use transform="matrix(0.008680555555555556,0,0,0.008680555555555556,52.81250000000001,0)" xlink:href="#ah"/></g><path d="M750-1118v229H516V0H217v-889H20v-229h197v-86c0-238 156-356 363-356 94 0 178 20 215 31l-54 226c-25-7-61-15-100-15-123-3-131 84-125 200h234" id="an"/><path d="M428-647V0H128v-1118h283l4 231c63-156 176-245 348-245 232 0 384 159 384 421V0H847v-659c0-139-76-222-202-222-128 0-217 86-217 234" id="ao"/><g id="f"><use transform="matrix(0.009765625,0,0,0.009765625,0,0)" xlink:href="#Y"/><use transform="matrix(0.009765625,0,0,0.009765625,12.890625,0)" xlink:href="#ac"/><use transform="matrix(0.009765625,0,0,0.009765625,24.8046875,0)" xlink:href="#an"/><use transform="matrix(0.009765625,0,0,0.009765625,32.9296875,0)" xlink:href="#am"/><use transform="matrix(0.009765625,0,0,0.009765625,38.349609375,0)" xlink:href="#ao"/><use transform="matrix(0.009765625,0,0,0.009765625,50.80078125,0)" xlink:href="#ac"/></g><path d="M795 20C377 20 94-272 94-743c0-483 302-767 694-767 335 0 593 206 635 500h-310c-42-142-154-229-320-229-230 0-389 177-389 493s154 495 393 495c212 0 340-120 345-311H818v-232h620v186c0 391-269 628-643 628" id="ap"/><g id="g"><use transform="matrix(0.009765625,0,0,0.009765625,0,0)" xlink:href="#ap"/><use transform="matrix(0.009765625,0,0,0.009765625,15.009765625,0)" xlink:href="#ac"/><use transform="matrix(0.009765625,0,0,0.009765625,26.923828125,0)" xlink:href="#ao"/><use transform="matrix(0.009765625,0,0,0.009765625,39.375,0)" xlink:href="#ac"/><use transform="matrix(0.009765625,0,0,0.009765625,51.2890625,0)" xlink:href="#ad"/><use transform="matrix(0.009765625,0,0,0.009765625,59.16015625,0)" xlink:href="#ak"/><use transform="matrix(0.009765625,0,0,0.009765625,70.771484375,0)" xlink:href="#ab"/><use transform="matrix(0.009765625,0,0,0.009765625,77.900390625,0)" xlink:href="#ac"/></g><path d="M443 0L31-1118h319c90 293 199 572 268 885 66-313 175-593 264-885h315L784 0H443" id="aq"/><g id="h"><use transform="matrix(0.009765625,0,0,0.009765625,0,0)" xlink:href="#Y"/><use transform="matrix(0.009765625,0,0,0.009765625,12.890625,0)" xlink:href="#ac"/><use transform="matrix(0.009765625,0,0,0.009765625,24.8046875,0)" xlink:href="#ab"/><use transform="matrix(0.009765625,0,0,0.009765625,32.12890625,0)" xlink:href="#ad"/><use transform="matrix(0.009765625,0,0,0.009765625,40.419921875,0)" xlink:href="#am"/><use transform="matrix(0.009765625,0,0,0.009765625,45.83984375,0)" xlink:href="#ac"/><use transform="matrix(0.009765625,0,0,0.009765625,57.392578125,0)" xlink:href="#aq"/><use transform="matrix(0.009765625,0,0,0.009765625,69.0234375,0)" xlink:href="#ac"/></g><path d="M571 0L49-1490h339c138 427 271 775 384 1244 111-471 237-815 371-1244h337L970 0H571" id="ar"/><path d="M428-1490V0H128v-1490h300" id="as"/><path d="M537 19C279 19 81-185 81-557c0-382 206-575 454-575 190 0 278 113 318 202h10v-560h300V0H868v-179h-15C812-89 719 19 537 19zm92-241c153 0 240-134 240-336 0-203-86-334-240-334-158 0-240 138-240 334 0 197 84 336 240 336" id="at"/><g id="i"><use transform="matrix(0.009765625,0,0,0.009765625,0,0)" xlink:href="#ar"/><use transform="matrix(0.009765625,0,0,0.009765625,13.75,0)" xlink:href="#ak"/><use transform="matrix(0.009765625,0,0,0.009765625,25.361328125,0)" xlink:href="#as"/><use transform="matrix(0.009765625,0,0,0.009765625,30.78125,0)" xlink:href="#am"/><use transform="matrix(0.009765625,0,0,0.009765625,36.201171875,0)" xlink:href="#at"/><use transform="matrix(0.009765625,0,0,0.009765625,48.80859375,0)" xlink:href="#ak"/><use transform="matrix(0.009765625,0,0,0.009765625,60.419921875,0)" xlink:href="#ab"/><use transform="matrix(0.009765625,0,0,0.009765625,67.548828125,0)" xlink:href="#ac"/></g><path fill="#008a0e" d="M659 0H135v-1490h529c448 0 721 280 721 744 0 466-273 746-726 746zM440-263h204c287 0 437-148 437-483 0-333-150-481-435-481H440v964" id="au"/><path fill="#008a0e" d="M128 0v-1118h300V0H128zm150-1264c-91 0-165-68-165-154 0-85 74-154 165-154 90 0 165 69 165 154 0 86-75 154-165 154" id="av"/><path fill="#008a0e" d="M128 0v-1118h290v195h12c54-169 184-238 367-200v268c-27-8-86-15-130-15-138 0-239 95-239 234V0H128" id="aw"/><path fill="#008a0e" d="M633 22C291 22 81-200 81-553c0-345 210-579 537-579 292 0 525 185 525 567v84H378c7 183 109 277 260 277 105 0 184-46 216-132l272 51C1071-99 893 22 633 22zM380-669h474c-15-146-94-237-233-237-143 0-229 99-241 237" id="ax"/><path fill="#008a0e" d="M628 22C291 22 81-210 81-554c0-346 210-578 547-578 265 0 455 142 497 372l-279 52c-25-116-99-188-215-188-160 0-244 139-244 341 0 200 84 341 244 341 116 0 193-74 217-195l279 51C1085-123 896 22 628 22" id="ay"/><path fill="#008a0e" d="M683-1118v229H474v562c0 71 29 104 102 104 23 0 73-7 95-13l43 225C647 9 580 16 520 16 296 16 174-96 174-301v-588H20v-229h154v-266h300v266h209" id="az"/><path fill="#008a0e" d="M342-723c-98 0-173-75-173-172s75-172 173-172 173 75 173 172-75 172-173 172zm0 742c-98 0-173-75-173-172s75-172 173-172 173 75 173 172S440 19 342 19" id="aA"/><g id="j"><use transform="matrix(0.009765625,0,0,0.009765625,0,0)" xlink:href="#au"/><use transform="matrix(0.009765625,0,0,0.009765625,14.443359375,0)" xlink:href="#av"/><use transform="matrix(0.009765625,0,0,0.009765625,19.86328125,0)" xlink:href="#aw"/><use transform="matrix(0.009765625,0,0,0.009765625,27.51953125,0)" xlink:href="#ax"/><use transform="matrix(0.009765625,0,0,0.009765625,39.43359375,0)" xlink:href="#ay"/><use transform="matrix(0.009765625,0,0,0.009765625,51.201171875,0)" xlink:href="#az"/><use transform="matrix(0.009765625,0,0,0.009765625,58.525390625,0)" xlink:href="#aA"/></g><path d="M180 0v-1490h224l606 953c40 63 108 177 176 312-27-437-7-821-13-1265h190V0h-226C860-448 622-778 356-1262c27 476 11 792 15 1262H180" id="aB"/><path d="M613 24c-304 0-509-231-509-576 0-350 205-580 509-580 305 0 511 230 511 580 0 345-206 576-511 576zm0-161c226 0 329-195 329-415 0-222-103-419-329-419-223 0-326 196-326 419 0 220 103 415 326 415" id="aC"/><g id="k"><use transform="matrix(0.009765625,0,0,0.009765625,0,0)" xlink:href="#aB"/><use transform="matrix(0.009765625,0,0,0.009765625,15.068359375,0)" xlink:href="#aC"/></g><path d="M158 0v-1118h174v172h12c41-113 157-188 290-188 26 0 70 2 91 3v181c-11-2-60-10-108-10-161 0-279 109-279 260V0H158" id="aD"/><path d="M628 24c-324 0-524-230-524-574 0-343 198-582 503-582 237 0 487 146 487 559v75H286c9 234 145 362 343 362 132 0 231-58 273-172l174 48C1024-91 857 24 628 24zM287-650h624c-17-190-120-322-304-322-192 0-309 151-320 322" id="aE"/><path d="M598-1118v154H368v674c0 100 37 144 132 144 23 0 62-6 92-12L629-6c-37 13-88 20-134 20-193 0-307-107-307-290v-688H20v-154h168v-266h180v266h230" id="aF"/><path d="M158 0v-1118h180V0H158zm91-1301c-68 0-125-53-125-119s57-119 125-119c69 0 126 53 126 119s-57 119-126 119" id="aG"/><path d="M481 0L54-1118h197c107 314 236 620 325 951 87-331 217-637 324-951h197L670 0H481" id="aH"/><path d="M471 26C259 26 90-98 90-318c0-256 228-303 435-329 202-27 287-16 287-108 0-139-79-219-234-219-161 0-248 86-283 164l-173-57c86-203 278-265 451-265 150 0 419 46 419 395V0H815v-152h-12C765-73 660 26 471 26zm31-159c199 0 310-134 310-271v-155c-30 35-226 55-295 64-131 17-246 59-246 186 0 116 97 176 231 176" id="aI"/><path d="M338-1490V0H158v-1490h180" id="aJ"/><g id="l"><use transform="matrix(0.009765625,0,0,0.009765625,0,0)" xlink:href="#aD"/><use transform="matrix(0.009765625,0,0,0.009765625,7.197265625,0)" xlink:href="#aE"/><use transform="matrix(0.009765625,0,0,0.009765625,18.857421875,0)" xlink:href="#aF"/><use transform="matrix(0.009765625,0,0,0.009765625,25.400390625,0)" xlink:href="#aD"/><use transform="matrix(0.009765625,0,0,0.009765625,33.2421875,0)" xlink:href="#aG"/><use transform="matrix(0.009765625,0,0,0.009765625,38.0859375,0)" xlink:href="#aE"/><use transform="matrix(0.009765625,0,0,0.009765625,49.35546875,0)" xlink:href="#aH"/><use transform="matrix(0.009765625,0,0,0.009765625,60.498046875,0)" xlink:href="#aI"/><use transform="matrix(0.009765625,0,0,0.009765625,71.728515625,0)" xlink:href="#aJ"/></g><path d="M577 24c-279 0-473-224-473-580 0-354 195-576 474-576 218 0 287 134 324 193h14v-551h180V0H922v-173h-20C865-111 790 24 577 24zm27-161c203 0 314-172 314-421 0-247-108-413-314-413-212 0-317 181-317 413 0 235 108 421 317 421" id="aK"/><g id="m"><use transform="matrix(0.009765625,0,0,0.009765625,0,0)" xlink:href="#aB"/><use transform="matrix(0.009765625,0,0,0.009765625,15.068359375,0)" xlink:href="#aE"/><use transform="matrix(0.009765625,0,0,0.009765625,26.728515625,0)" xlink:href="#aE"/><use transform="matrix(0.009765625,0,0,0.009765625,38.388671875,0)" xlink:href="#aK"/><use transform="matrix(0.009765625,0,0,0.009765625,50.634765625,0)" xlink:href="#aE"/><use transform="matrix(0.009765625,0,0,0.009765625,62.294921875,0)" xlink:href="#aK"/></g><path fill="#e81313" d="M440-1490V0H135v-1490h305" id="aL"/><path fill="#e81313" d="M428-647V0H128v-1118h283l4 231c63-156 176-245 348-245 232 0 384 159 384 421V0H847v-659c0-139-76-222-202-222-128 0-217 86-217 234" id="aM"/><path fill="#e81313" d="M572 22C302 22 117-98 78-306l279-48c29 105 101 156 224 156 114 0 185-48 185-115 0-118-228-130-337-155-215-49-322-150-322-317 0-215 187-347 470-347 265 0 424 116 466 298l-266 47c-24-76-87-130-196-130-98 0-174 46-174 113 0 56 38 95 144 117l201 40c216 44 320 143 320 302 0 220-207 367-500 367" id="aN"/><path fill="#e81313" d="M513 14c-232 0-385-159-385-421v-711h300v659c0 139 76 222 202 222 127 0 217-86 217-234v-647h301V0H864l-4-232C797-74 683 14 513 14" id="aO"/><path fill="#e81313" d="M750-1118v229H516V0H217v-889H20v-229h197v-86c0-238 156-356 363-356 94 0 178 20 215 31l-54 226c-25-7-61-15-100-15-123-3-131 84-125 200h234" id="aP"/><path fill="#e81313" d="M128 0v-1118h300V0H128zm150-1264c-91 0-165-68-165-154 0-85 74-154 165-154 90 0 165 69 165 154 0 86-75 154-165 154" id="aQ"/><path fill="#e81313" d="M628 22C291 22 81-210 81-554c0-346 210-578 547-578 265 0 455 142 497 372l-279 52c-25-116-99-188-215-188-160 0-244 139-244 341 0 200 84 341 244 341 116 0 193-74 217-195l279 51C1085-123 896 22 628 22" id="aR"/><path fill="#e81313" d="M633 22C291 22 81-200 81-553c0-345 210-579 537-579 292 0 525 185 525 567v84H378c7 183 109 277 260 277 105 0 184-46 216-132l272 51C1071-99 893 22 633 22zM380-669h474c-15-146-94-237-233-237-143 0-229 99-241 237" id="aS"/><path fill="#e81313" d="M683-1118v229H474v562c0 71 29 104 102 104 23 0 73-7 95-13l43 225C647 9 580 16 520 16 296 16 174-96 174-301v-588H20v-229h154v-266h300v266h209" id="aT"/><path fill="#e81313" d="M342-723c-98 0-173-75-173-172s75-172 173-172 173 75 173 172-75 172-173 172zm0 742c-98 0-173-75-173-172s75-172 173-172 173 75 173 172S440 19 342 19" id="aU"/><g id="n"><use transform="matrix(0.010959201388888886,0,0,0.010959201388888886,0,0)" xlink:href="#aL"/><use transform="matrix(0.010959201388888886,0,0,0.010959201388888886,6.30154079861111,0)" xlink:href="#aM"/><use transform="matrix(0.010959201388888886,0,0,0.010959201388888886,20.27452256944444,0)" xlink:href="#aN"/><use transform="matrix(0.010959201388888886,0,0,0.010959201388888886,32.84472656249999,0)" xlink:href="#aO"/><use transform="matrix(0.010959201388888886,0,0,0.010959201388888886,46.81770833333332,0)" xlink:href="#aP"/><use transform="matrix(0.010959201388888886,0,0,0.010959201388888886,54.81792534722221,0)" xlink:href="#aP"/><use transform="matrix(0.010959201388888886,0,0,0.010959201388888886,63.935980902777764,0)" xlink:href="#aQ"/><use transform="matrix(0.010959201388888886,0,0,0.010959201388888886,70.0183376736111,0)" xlink:href="#aR"/><use transform="matrix(0.010959201388888886,0,0,0.010959201388888886,83.22417534722221,0)" xlink:href="#aQ"/><use transform="matrix(0.010959201388888886,0,0,0.010959201388888886,89.30653211805554,0)" xlink:href="#aS"/><use transform="matrix(0.010959201388888886,0,0,0.010959201388888886,102.67675781249997,0)" xlink:href="#aM"/><use transform="matrix(0.010959201388888886,0,0,0.010959201388888886,116.6497395833333,0)" xlink:href="#aT"/><use transform="matrix(0.010959201388888886,0,0,0.010959201388888886,124.86914062499997,0)" xlink:href="#aU"/></g><path d="M158 0v-1118h175l1 205c55-151 181-225 313-225 147 0 245 90 285 228 53-141 190-228 352-228 194 0 352 125 352 384V0h-181v-749c0-161-105-225-225-225-151 0-243 103-243 244V0H807v-767c0-124-93-207-219-207-131 0-250 92-250 270V0H158" id="aV"/><path d="M158 418v-1536h174v179h20c37-59 106-193 324-193 279 0 474 222 474 576 0 356-194 580-473 580-213 0-288-135-325-197h-14v591H158zm492-555c209 0 317-186 317-421 0-232-105-413-317-413-206 0-314 166-314 413 0 249 111 421 314 421" id="aW"/><g id="o"><use transform="matrix(0.010959201388888886,0,0,0.010959201388888886,0,0)" xlink:href="#aI"/><use transform="matrix(0.010959201388888886,0,0,0.010959201388888886,12.60308159722222,0)" xlink:href="#aF"/><use transform="matrix(0.010959201388888886,0,0,0.010959201388888886,19.39778645833333,0)" xlink:href="#aF"/><use transform="matrix(0.010959201388888886,0,0,0.010959201388888886,26.521267361111104,0)" xlink:href="#aE"/><use transform="matrix(0.010959201388888886,0,0,0.010959201388888886,39.606553819444436,0)" xlink:href="#aV"/><use transform="matrix(0.010959201388888886,0,0,0.010959201388888886,59.2673611111111,0)" xlink:href="#aW"/><use transform="matrix(0.010959201388888886,0,0,0.010959201388888886,73.01019965277777,0)" xlink:href="#aF"/></g><path d="M174-520v-126l944-476v196L406-588v12l712 338v194" id="aX"/><use transform="matrix(0.010959201388888886,0,0,0.010959201388888886,0,0)" xlink:href="#aX" id="p"/><path d="M154 0v-137l495-537c165-179 249-281 249-418 0-156-121-253-280-253-170 0-278 110-278 278H158c0-264 200-443 465-443 266 0 455 183 455 416 0 161-73 288-336 568L416-179v12h687V0H154" id="aY"/><use transform="matrix(0.010959201388888886,0,0,0.010959201388888886,0,0)" xlink:href="#aY" id="q"/><path d="M135 0v-1490h997v253H440v360h640v249H440v375h694V0H135" id="aZ"/><g id="r"><use transform="matrix(0.010959201388888886,0,0,0.010959201388888886,0,0)" xlink:href="#aZ"/><use transform="matrix(0.010959201388888886,0,0,0.010959201388888886,13.633246527777775,0)" xlink:href="#ao"/><use transform="matrix(0.010959201388888886,0,0,0.010959201388888886,27.606228298611104,0)" xlink:href="#at"/></g><path d="M128 0v-1118h278l12 217c60-163 185-234 319-234 143 0 236 81 288 251 63-172 205-251 359-251 205 0 357 138 357 381V0h-301v-697c0-126-76-187-177-187-114 0-184 79-184 196V0H789v-705c0-109-72-179-174-179-106 0-187 74-187 208V0H128" id="ba"/><path d="M659 0H135v-1490h529c448 0 721 280 721 744 0 466-273 746-726 746zM440-263h204c287 0 437-148 437-483 0-333-150-481-435-481H440v964" id="bb"/><path d="M135 0v-1490h591c327 0 492 160 492 383 0 177-115 286-268 320v15c168 8 326 140 326 361 0 236-176 411-512 411H135zm305-251h264c179 0 258-76 258-189 0-125-97-215-250-215H440v404zm0-613h241c131 0 228-74 228-194 0-109-79-183-222-183H440v377" id="bc"/><g id="s"><use transform="matrix(0.010959201388888886,0,0,0.010959201388888886,0,0)" xlink:href="#ai"/><use transform="matrix(0.010959201388888886,0,0,0.010959201388888886,16.603190104166664,0)" xlink:href="#aj"/><use transform="matrix(0.010959201388888886,0,0,0.010959201388888886,30.576171874999993,0)" xlink:href="#ad"/><use transform="matrix(0.010959201388888886,0,0,0.010959201388888886,39.16818576388888,0)" xlink:href="#Z"/><use transform="matrix(0.010959201388888886,0,0,0.010959201388888886,52.93294270833332,0)" xlink:href="#ba"/><use transform="matrix(0.010959201388888886,0,0,0.010959201388888886,73.41569010416666,0)" xlink:href="#ak"/><use transform="matrix(0.010959201388888886,0,0,0.010959201388888886,86.44618055555554,0)" xlink:href="#bb"/><use transform="matrix(0.010959201388888886,0,0,0.010959201388888886,102.6548394097222,0)" xlink:href="#bc"/></g><path fill="#1071e5" d="M135 0v-1490h581c339 0 533 210 533 503 0 295-197 500-540 500H440V0H135zm305-733h220c186 0 274-104 274-254s-88-251-275-251H440v505" id="bd"/><path fill="#1071e5" d="M628 22C291 22 81-210 81-554c0-346 210-578 547-578 336 0 547 232 547 578 0 344-211 576-547 576zm0-236c160 0 242-146 242-341 0-197-82-341-242-341S387-753 387-555c0 195 81 341 241 341" id="be"/><path fill="#1071e5" d="M428-1490V0H128v-1490h300" id="bf"/><g id="t"><use transform="matrix(0.010959201388888886,0,0,0.010959201388888886,0,0)" xlink:href="#bd"/><use transform="matrix(0.010959201388888886,0,0,0.010959201388888886,14.356553819444441,0)" xlink:href="#be"/><use transform="matrix(0.010959201388888886,0,0,0.010959201388888886,28.121310763888882,0)" xlink:href="#be"/><use transform="matrix(0.010959201388888886,0,0,0.010959201388888886,41.88606770833332,0)" xlink:href="#bf"/></g><path fill="#1071e5" d="M681 22C323 22 94-145 85-462h297c10 151 131 226 296 226 163 0 271-77 271-190 0-102-95-149-257-189l-164-41c-252-61-403-188-403-405 0-269 236-449 560-449 330 0 546 183 551 445H941c-11-119-106-188-259-188-156 0-244 72-244 172-3 156 226 185 373 221 250 61 445 186 445 436 0 271-213 446-575 446" id="bg"/><path fill="#1071e5" d="M683-1118v229H474v562c0 71 29 104 102 104 23 0 73-7 95-13l43 225C647 9 580 16 520 16 296 16 174-96 174-301v-588H20v-229h154v-266h300v266h209" id="bh"/><path fill="#1071e5" d="M128 0v-1118h290v195h12c54-169 184-238 367-200v268c-27-8-86-15-130-15-138 0-239 95-239 234V0H128" id="bi"/><path fill="#1071e5" d="M440 22C227 22 68-92 68-313c0-250 202-322 422-343 195-21 271-24 271-105 0-95-63-149-175-149-116 0-187 57-211 129l-275-46c57-194 237-305 487-305 240 0 474 108 474 379V0H777v-155h-10C713-51 605 22 440 22zm85-211c140 0 238-93 238-211v-121c-37 26-156 42-222 51-111 16-185 59-185 149 0 87 70 132 169 132" id="bj"/><path fill="#1071e5" d="M633 22C291 22 81-200 81-553c0-345 210-579 537-579 292 0 525 185 525 567v84H378c7 183 109 277 260 277 105 0 184-46 216-132l272 51C1071-99 893 22 633 22zM380-669h474c-15-146-94-237-233-237-143 0-229 99-241 237" id="bk"/><path fill="#1071e5" d="M625 442c-280 0-454-114-503-274l258-72c28 63 97 128 243 128 153 0 246-69 246-216v-206h-23C805-108 717-16 536-16 284-16 81-191 81-561c0-378 208-571 456-571 188 0 280 113 321 202h13v-188h295V-9c0 303-226 451-541 451zm5-686c153 0 240-119 240-319 0-198-86-329-240-329-158 0-241 137-241 329 0 195 85 319 241 319" id="bl"/><path fill="#1071e5" d="M120 396l69-226c123 42 245 23 254-107l8-60L31-1118h319c87 288 199 559 259 872 72-308 185-583 277-872h315L726 132c-68 181-186 294-410 294-79 0-153-13-196-30" id="bm"/><g id="u"><use transform="matrix(0.010959201388888886,0,0,0.010959201388888886,0,0)" xlink:href="#bg"/><use transform="matrix(0.010959201388888886,0,0,0.010959201388888886,14.696289062499996,0)" xlink:href="#bh"/><use transform="matrix(0.010959201388888886,0,0,0.010959201388888886,22.91569010416666,0)" xlink:href="#bi"/><use transform="matrix(0.010959201388888886,0,0,0.010959201388888886,31.7488064236111,0)" xlink:href="#bj"/><use transform="matrix(0.010959201388888886,0,0,0.010959201388888886,44.779296874999986,0)" xlink:href="#bh"/><use transform="matrix(0.010959201388888886,0,0,0.010959201388888886,52.779513888888864,0)" xlink:href="#bk"/><use transform="matrix(0.010959201388888886,0,0,0.010959201388888886,66.14973958333331,0)" xlink:href="#bl"/><use transform="matrix(0.010959201388888886,0,0,0.010959201388888886,80.33094618055553,0)" xlink:href="#bm"/></g><path d="M576-274c-177 0-320-143-320-320s143-320 320-320 320 143 320 320-143 320-320 320" id="bn"/><use transform="matrix(0.010959201388888886,0,0,0.010959201388888886,0,0)" xlink:href="#bn" id="v"/><path d="M653-1490V0H466v-1314h-10L96-1047v-204l324-239h233" id="bo"/><path d="M538 24C308 24 148-78 108-271l171-41c32 123 123 178 257 178 156 0 256-77 256-169 0-77-54-128-164-154l-186-44c-203-48-300-148-300-305 0-192 176-326 414-326 230 0 351 112 402 269l-163 42c-31-80-94-158-238-158-133 0-233 69-233 162 0 83 57 129 188 160l169 40c203 48 298 149 298 302 0 196-179 339-441 339" id="bp"/><g id="w"><use transform="matrix(0.010959201388888886,0,0,0.010959201388888886,0,0)" xlink:href="#bo"/><use transform="matrix(0.010959201388888886,0,0,0.010959201388888886,9.129014756944443,0)" xlink:href="#bp"/><use transform="matrix(0.010959201388888886,0,0,0.010959201388888886,20.97591145833333,0)" xlink:href="#aF"/></g><path d="M613 24c-304 0-509-231-509-576 0-350 205-580 509-580 216 0 392 114 453 309l-173 49c-33-115-133-197-280-197-223 0-326 196-326 419 0 220 103 415 326 415 150 0 252-85 285-206l172 49C1010-95 832 24 613 24" id="bq"/><g id="x"><use transform="matrix(0.010959201388888886,0,0,0.010959201388888886,0,0)" xlink:href="#bq"/><use transform="matrix(0.010959201388888886,0,0,0.010959201388888886,13.041449652777775,0)" xlink:href="#aI"/><use transform="matrix(0.010959201388888886,0,0,0.010959201388888886,25.644531249999993,0)" xlink:href="#aJ"/><use transform="matrix(0.010959201388888886,0,0,0.010959201388888886,31.080295138888875,0)" xlink:href="#aJ"/></g><path d="M295 13c-75 0-135-60-135-135s60-135 135-135 135 60 135 135S370 13 295 13zm0-809c-75 0-135-60-135-135s60-135 135-135 135 60 135 135-60 135-135 135" id="br"/><use transform="matrix(0.010959201388888886,0,0,0.010959201388888886,0,0)" xlink:href="#br" id="y"/><path d="M677 24c-213 0-288-135-325-197h-20V0H158v-1490h180v551h14c37-59 106-193 324-193 279 0 474 222 474 576 0 356-194 580-473 580zm-27-161c209 0 317-186 317-421 0-232-105-413-317-413-206 0-314 166-314 413 0 249 111 421 314 421" id="bs"/><g id="z"><use transform="matrix(0.010959201388888886,0,0,0.010959201388888886,0,0)" xlink:href="#aE"/><use transform="matrix(0.010959201388888886,0,0,0.010959201388888886,13.08528645833333,0)" xlink:href="#aV"/><use transform="matrix(0.010959201388888886,0,0,0.010959201388888886,32.74609374999999,0)" xlink:href="#bs"/><use transform="matrix(0.010959201388888886,0,0,0.010959201388888886,46.48893229166666,0)" xlink:href="#aE"/><use transform="matrix(0.010959201388888886,0,0,0.010959201388888886,59.574218749999986,0)" xlink:href="#aK"/></g><path d="M1096 418H916v-591h-14C865-111 790 24 577 24c-279 0-473-224-473-580 0-354 195-576 474-576 218 0 287 134 324 193h20v-179h174V418zM604-137c203 0 314-172 314-421 0-247-108-413-314-413-212 0-317 181-317 413 0 235 108 421 317 421" id="bt"/><path d="M537 14c-226 0-379-139-379-422v-710h180v695c0 172 97 275 253 275 160 0 281-109 281-300v-670h181V0H879v-209C806-46 684 14 537 14" id="bu"/><path d="M140 405l46-156c120 36 205 19 263-150l32-93L54-1118h197c107 313 237 620 324 950 87-331 219-637 326-950h196L606 167c-68 178-176 259-334 259-64 0-113-12-132-21" id="bv"/><g id="A"><use transform="matrix(0.010959201388888886,0,0,0.010959201388888886,0,0)" xlink:href="#bt"/><use transform="matrix(0.010959201388888886,0,0,0.010959201388888886,13.742838541666664,0)" xlink:href="#bu"/><use transform="matrix(0.010959201388888886,0,0,0.010959201388888886,27.014431423611104,0)" xlink:href="#aE"/><use transform="matrix(0.010959201388888886,0,0,0.010959201388888886,40.099717881944436,0)" xlink:href="#aD"/><use transform="matrix(0.010959201388888886,0,0,0.010959201388888886,48.899956597222214,0)" xlink:href="#bv"/></g><path d="M338-670V0H158v-1118h173l1 207c72-158 192-221 342-221 226 0 378 139 378 422V0H872v-695c0-172-96-275-252-275-161 0-282 109-282 300" id="bw"/><path d="M128 359l88-567h206L266 359H128" id="bx"/><path d="M678-1118v154H420V0H240v-964H20v-154h220v-149c0-194 155-293 318-293 85 0 141 18 168 30l-50 154c-19-6-47-17-97-17-111 0-159 58-159 166v109h258" id="by"/><path d="M338-670V0H158v-1490h180v566c73-149 190-208 336-208 226 0 379 139 379 422V0H872v-695c0-172-96-275-252-275-161 0-282 109-282 300" id="bz"/><g id="B"><use transform="matrix(0.010959201388888886,0,0,0.010959201388888886,0,0)" xlink:href="#aC"/><use transform="matrix(0.010959201388888886,0,0,0.010959201388888886,13.457899305555552,0)" xlink:href="#bw"/><use transform="matrix(0.010959201388888886,0,0,0.010959201388888886,26.718532986111104,0)" xlink:href="#bq"/><use transform="matrix(0.010959201388888886,0,0,0.010959201388888886,39.5407986111111,0)" xlink:href="#aE"/><use transform="matrix(0.010959201388888886,0,0,0.010959201388888886,52.626085069444436,0)" xlink:href="#bx"/><use transform="matrix(0.010959201388888886,0,0,0.010959201388888886,59.09201388888888,0)" xlink:href="#by"/><use transform="matrix(0.010959201388888886,0,0,0.010959201388888886,66.74153645833331,0)" xlink:href="#aE"/><use transform="matrix(0.010959201388888886,0,0,0.010959201388888886,79.82682291666664,0)" xlink:href="#aF"/><use transform="matrix(0.010959201388888886,0,0,0.010959201388888886,86.95030381944443,0)" xlink:href="#bq"/><use transform="matrix(0.010959201388888886,0,0,0.010959201388888886,99.77256944444443,0)" xlink:href="#bz"/></g><g id="C"><use transform="matrix(0.010959201388888886,0,0,0.010959201388888886,0,0)" xlink:href="#aF"/><use transform="matrix(0.010959201388888886,0,0,0.010959201388888886,7.123480902777776,0)" xlink:href="#aC"/><use transform="matrix(0.010959201388888886,0,0,0.010959201388888886,20.58138020833333,0)" xlink:href="#aW"/></g><path d="M646 20c-332 0-524-278-524-764 0-483 194-766 524-766s524 283 524 766c0 485-191 764-524 764zm0-166c218 0 341-220 341-598 0-380-123-601-341-601s-341 222-341 601c0 378 123 598 341 598" id="bA"/><g id="D"><use transform="matrix(0.010959201388888886,0,0,0.010959201388888886,0,0)" xlink:href="#bo"/><use transform="matrix(0.010959201388888886,0,0,0.010959201388888886,9.129014756944443,0)" xlink:href="#bA"/></g><path d="M158 0v-1490h180v865h22l478-493h223L593-638 1096 0H865L456-523 338-412V0H158" id="bB"/><g id="E"><use transform="matrix(0.010959201388888886,0,0,0.010959201388888886,0,0)" xlink:href="#bq"/><use transform="matrix(0.010959201388888886,0,0,0.010959201388888886,12.822265624999996,0)" xlink:href="#bz"/><use transform="matrix(0.010959201388888886,0,0,0.010959201388888886,26.093858506944432,0)" xlink:href="#bu"/><use transform="matrix(0.010959201388888886,0,0,0.010959201388888886,39.36545138888888,0)" xlink:href="#bw"/><use transform="matrix(0.010959201388888886,0,0,0.010959201388888886,52.626085069444436,0)" xlink:href="#bB"/><use transform="matrix(0.010959201388888886,0,0,0.010959201388888886,64.94422743055554,0)" xlink:href="#bp"/><use transform="matrix(0.010959201388888886,0,0,0.010959201388888886,76.79112413194443,0)" xlink:href="#bx"/></g><g id="F"><use transform="matrix(0.010959201388888886,0,0,0.010959201388888886,0,0)" xlink:href="#bu"/><use transform="matrix(0.010959201388888886,0,0,0.010959201388888886,13.271592881944441,0)" xlink:href="#bp"/><use transform="matrix(0.010959201388888886,0,0,0.010959201388888886,25.11848958333333,0)" xlink:href="#aE"/></g><path d="M226 279v-1860h398v153H398V126h226v153H226" id="bC"/><path d="M626 20c-262 0-458-168-468-396h184c12 133 134 229 284 229 180 0 311-137 311-326 0-192-136-335-323-335-92 0-196 33-255 78l-178-22 88-738h784v167H429l-51 435h8c61-51 160-87 263-87 273 0 474 211 474 499 0 286-210 496-497 496" id="bD"/><path d="M123 279V126h226v-1554H123v-153h398V279H123" id="bE"/><g id="G"><use transform="matrix(0.010959201388888886,0,0,0.010959201388888886,0,0)" xlink:href="#bC"/><use transform="matrix(0.010959201388888886,0,0,0.010959201388888886,8.186523437499998,0)" xlink:href="#bA"/><use transform="matrix(0.010959201388888886,0,0,0.010959201388888886,22.34581163194444,0)" xlink:href="#br"/><use transform="matrix(0.010959201388888886,0,0,0.010959201388888886,28.811740451388882,0)" xlink:href="#bD"/><use transform="matrix(0.010959201388888886,0,0,0.010959201388888886,42.45594618055554,0)" xlink:href="#bE"/></g><g id="H"><use transform="matrix(0.010959201388888886,0,0,0.010959201388888886,0,0)" xlink:href="#aY"/><use transform="matrix(0.010959201388888886,0,0,0.010959201388888886,13.68804253472222,0)" xlink:href="#bw"/><use transform="matrix(0.010959201388888886,0,0,0.010959201388888886,26.94867621527777,0)" xlink:href="#aK"/></g><g id="I"><use transform="matrix(0.010959201388888886,0,0,0.010959201388888886,0,0)" xlink:href="#bq"/><use transform="matrix(0.010959201388888886,0,0,0.010959201388888886,13.041449652777775,0)" xlink:href="#aI"/><use transform="matrix(0.010959201388888886,0,0,0.010959201388888886,25.644531249999993,0)" xlink:href="#aJ"/><use transform="matrix(0.010959201388888886,0,0,0.010959201388888886,31.080295138888875,0)" xlink:href="#aJ"/><use transform="matrix(0.010959201388888886,0,0,0.010959201388888886,36.516059027777764,0)" xlink:href="#br"/></g><g id="J"><use transform="matrix(0.010959201388888886,0,0,0.010959201388888886,0,0)" xlink:href="#aD"/><use transform="matrix(0.010959201388888886,0,0,0.010959201388888886,8.07693142361111,0)" xlink:href="#aE"/><use transform="matrix(0.010959201388888886,0,0,0.010959201388888886,21.162217881944443,0)" xlink:href="#bu"/><use transform="matrix(0.010959201388888886,0,0,0.010959201388888886,34.433810763888886,0)" xlink:href="#bp"/><use transform="matrix(0.010959201388888886,0,0,0.010959201388888886,46.280707465277764,0)" xlink:href="#aE"/></g><g id="K"><use transform="matrix(0.010959201388888886,0,0,0.010959201388888886,0,0)" xlink:href="#aW"/><use transform="matrix(0.010959201388888886,0,0,0.010959201388888886,13.742838541666664,0)" xlink:href="#aC"/><use transform="matrix(0.010959201388888886,0,0,0.010959201388888886,27.200737847222214,0)" xlink:href="#aC"/><use transform="matrix(0.010959201388888886,0,0,0.010959201388888886,40.658637152777764,0)" xlink:href="#aJ"/><use transform="matrix(0.010959201388888886,0,0,0.010959201388888886,46.09440104166664,0)" xlink:href="#bx"/></g><g id="L"><use transform="matrix(0.010959201388888886,0,0,0.010959201388888886,0,0)" xlink:href="#bu"/><use transform="matrix(0.010959201388888886,0,0,0.010959201388888886,13.271592881944441,0)" xlink:href="#bp"/><use transform="matrix(0.010959201388888886,0,0,0.010959201388888886,25.11848958333333,0)" xlink:href="#aE"/></g><g id="M"><use transform="matrix(0.010959201388888886,0,0,0.010959201388888886,0,0)" xlink:href="#bC"/><use transform="matrix(0.010959201388888886,0,0,0.010959201388888886,8.186523437499998,0)" xlink:href="#bD"/><use transform="matrix(0.010959201388888886,0,0,0.010959201388888886,21.830729166666664,0)" xlink:href="#br"/><use transform="matrix(0.010959201388888886,0,0,0.010959201388888886,28.29665798611111,0)" xlink:href="#bo"/><use transform="matrix(0.010959201388888886,0,0,0.010959201388888886,37.42567274305555,0)" xlink:href="#bA"/><use transform="matrix(0.010959201388888886,0,0,0.010959201388888886,51.584960937499986,0)" xlink:href="#bE"/></g><use transform="matrix(0.010959201388888886,0,0,0.010959201388888886,0,0)" xlink:href="#bx" id="N"/><g id="O"><use transform="matrix(0.010959201388888886,0,0,0.010959201388888886,0,0)" xlink:href="#bw"/><use transform="matrix(0.010959201388888886,0,0,0.010959201388888886,13.260633680555552,0)" xlink:href="#aC"/></g><path d="M798-719v166H144v-166h654" id="bF"/><path d="M611 442c-248 0-391-105-460-228l146-94c47 65 117 165 314 165 178 0 307-82 307-266v-224h-17C863-141 792-18 576-18c-268 0-472-195-472-546 0-346 197-568 476-568 216 0 288 133 326 193h17v-179h175V29c0 289-215 413-487 413zm-5-620c203 0 314-146 314-390 0-237-108-403-314-403-213 0-319 180-319 403 0 230 109 390 319 390" id="bG"/><g id="P"><use transform="matrix(0.010959201388888886,0,0,0.010959201388888886,0,0)" xlink:href="#aD"/><use transform="matrix(0.010959201388888886,0,0,0.010959201388888886,8.07693142361111,0)" xlink:href="#aE"/><use transform="matrix(0.010959201388888886,0,0,0.010959201388888886,21.162217881944443,0)" xlink:href="#bF"/><use transform="matrix(0.010959201388888886,0,0,0.010959201388888886,31.48578559027777,0)" xlink:href="#aE"/><use transform="matrix(0.010959201388888886,0,0,0.010959201388888886,44.5710720486111,0)" xlink:href="#aV"/><use transform="matrix(0.010959201388888886,0,0,0.010959201388888886,64.23187934027776,0)" xlink:href="#bs"/><use transform="matrix(0.010959201388888886,0,0,0.010959201388888886,77.97471788194443,0)" xlink:href="#aE"/><use transform="matrix(0.010959201388888886,0,0,0.010959201388888886,91.06000434027776,0)" xlink:href="#aK"/><use transform="matrix(0.010959201388888886,0,0,0.010959201388888886,104.80284288194441,0)" xlink:href="#aK"/><use transform="matrix(0.010959201388888886,0,0,0.010959201388888886,118.54568142361109,0)" xlink:href="#aG"/><use transform="matrix(0.010959201388888886,0,0,0.010959201388888886,123.98144531249997,0)" xlink:href="#bw"/><use transform="matrix(0.010959201388888886,0,0,0.010959201388888886,137.24207899305551,0)" xlink:href="#bG"/></g><g id="Q"><use transform="matrix(0.010959201388888886,0,0,0.010959201388888886,0,0)" xlink:href="#aC"/><use transform="matrix(0.010959201388888886,0,0,0.010959201388888886,13.457899305555552,0)" xlink:href="#aD"/></g><path d="M295 13c-75 0-135-60-135-135s60-135 135-135 135 60 135 135S370 13 295 13" id="bH"/><g id="R"><use transform="matrix(0.010959201388888886,0,0,0.010959201388888886,0,0)" xlink:href="#aD"/><use transform="matrix(0.010959201388888886,0,0,0.010959201388888886,8.07693142361111,0)" xlink:href="#aE"/><use transform="matrix(0.010959201388888886,0,0,0.010959201388888886,21.162217881944443,0)" xlink:href="#bF"/><use transform="matrix(0.010959201388888886,0,0,0.010959201388888886,31.48578559027777,0)" xlink:href="#bt"/><use transform="matrix(0.010959201388888886,0,0,0.010959201388888886,45.228624131944436,0)" xlink:href="#bu"/><use transform="matrix(0.010959201388888886,0,0,0.010959201388888886,58.50021701388888,0)" xlink:href="#aE"/><use transform="matrix(0.010959201388888886,0,0,0.010959201388888886,71.58550347222221,0)" xlink:href="#aD"/><use transform="matrix(0.010959201388888886,0,0,0.010959201388888886,80.38574218749999,0)" xlink:href="#bv"/><use transform="matrix(0.010959201388888886,0,0,0.010959201388888886,92.01345486111111,0)" xlink:href="#bH"/></g><path fill="#008a0e" d="M572 22C302 22 117-98 78-306l279-48c29 105 101 156 224 156 114 0 185-48 185-115 0-118-228-130-337-155-215-49-322-150-322-317 0-215 187-347 470-347 265 0 424 116 466 298l-266 47c-24-76-87-130-196-130-98 0-174 46-174 113 0 56 38 95 144 117l201 40c216 44 320 143 320 302 0 220-207 367-500 367" id="bI"/><path fill="#008a0e" d="M513 14c-232 0-385-159-385-421v-711h300v659c0 139 76 222 202 222 127 0 217-86 217-234v-647h301V0H864l-4-232C797-74 683 14 513 14" id="bJ"/><path fill="#008a0e" d="M750-1118v229H516V0H217v-889H20v-229h197v-86c0-238 156-356 363-356 94 0 178 20 215 31l-54 226c-25-7-61-15-100-15-123-3-131 84-125 200h234" id="bK"/><path fill="#008a0e" d="M428-647V0H128v-1118h283l4 231c63-156 176-245 348-245 232 0 384 159 384 421V0H847v-659c0-139-76-222-202-222-128 0-217 86-217 234" id="bL"/><g id="S"><use transform="matrix(0.010959201388888886,0,0,0.010959201388888886,0,0)" xlink:href="#bI"/><use transform="matrix(0.010959201388888886,0,0,0.010959201388888886,12.570203993055552,0)" xlink:href="#bJ"/><use transform="matrix(0.010959201388888886,0,0,0.010959201388888886,26.543185763888882,0)" xlink:href="#bK"/><use transform="matrix(0.010959201388888886,0,0,0.010959201388888886,34.54340277777777,0)" xlink:href="#bK"/><use transform="matrix(0.010959201388888886,0,0,0.010959201388888886,43.66145833333333,0)" xlink:href="#av"/><use transform="matrix(0.010959201388888886,0,0,0.010959201388888886,49.74381510416666,0)" xlink:href="#ay"/><use transform="matrix(0.010959201388888886,0,0,0.010959201388888886,62.949652777777764,0)" xlink:href="#av"/><use transform="matrix(0.010959201388888886,0,0,0.010959201388888886,69.0320095486111,0)" xlink:href="#ax"/><use transform="matrix(0.010959201388888886,0,0,0.010959201388888886,82.40223524305554,0)" xlink:href="#bL"/><use transform="matrix(0.010959201388888886,0,0,0.010959201388888886,96.37521701388887,0)" xlink:href="#az"/></g><path d="M218-607c0-325 108-727 258-974h175c-155 315-250 682-250 974 0 265 78 531 250 886H476C306-10 218-315 218-607" id="bM"/><g id="T"><use transform="matrix(0.007595486111111111,0,0,0.007595486111111111,0,0)" xlink:href="#bM"/><use transform="matrix(0.007595486111111111,0,0,0.007595486111111111,5.499131944444445,0)" xlink:href="#aC"/><use transform="matrix(0.007595486111111111,0,0,0.007595486111111111,14.82638888888889,0)" xlink:href="#aD"/></g><g id="U"><use transform="matrix(0.007595486111111111,0,0,0.007595486111111111,0,0)" xlink:href="#aY"/><use transform="matrix(0.007595486111111111,0,0,0.007595486111111111,9.486762152777777,0)" xlink:href="#bw"/><use transform="matrix(0.007595486111111111,0,0,0.007595486111111111,18.67730034722222,0)" xlink:href="#aK"/></g><g id="V"><use transform="matrix(0.007595486111111111,0,0,0.007595486111111111,0,0)" xlink:href="#aI"/><use transform="matrix(0.007595486111111111,0,0,0.007595486111111111,8.734809027777777,0)" xlink:href="#aF"/><use transform="matrix(0.007595486111111111,0,0,0.007595486111111111,13.444010416666666,0)" xlink:href="#aF"/><use transform="matrix(0.007595486111111111,0,0,0.007595486111111111,18.38107638888889,0)" xlink:href="#aE"/><use transform="matrix(0.007595486111111111,0,0,0.007595486111111111,27.450086805555557,0)" xlink:href="#aV"/><use transform="matrix(0.007595486111111111,0,0,0.007595486111111111,41.07638888888889,0)" xlink:href="#aW"/><use transform="matrix(0.007595486111111111,0,0,0.007595486111111111,50.60112847222223,0)" xlink:href="#aF"/></g><g id="W"><use transform="matrix(0.007595486111111111,0,0,0.007595486111111111,0,0)" xlink:href="#bu"/><use transform="matrix(0.007595486111111111,0,0,0.007595486111111111,9.198133680555555,0)" xlink:href="#bp"/><use transform="matrix(0.007595486111111111,0,0,0.007595486111111111,17.408854166666664,0)" xlink:href="#aE"/><use transform="matrix(0.007595486111111111,0,0,0.007595486111111111,26.47786458333333,0)" xlink:href="#aK"/></g><path d="M96 279C273-86 346-350 346-607c0-292-95-659-250-974h175c150 246 258 650 258 974 0 297-91 602-258 886H96" id="bN"/><g id="X"><use transform="matrix(0.007595486111111111,0,0,0.007595486111111111,0,0)" xlink:href="#bu"/><use transform="matrix(0.007595486111111111,0,0,0.007595486111111111,9.198133680555555,0)" xlink:href="#aW"/><use transform="matrix(0.007595486111111111,0,0,0.007595486111111111,18.548177083333336,0)" xlink:href="#bN"/></g></defs></g></svg>