<svg xmlns="http://www.w3.org/2000/svg" xmlns:xlink="http://www.w3.org/1999/xlink" xmlns:lucid="lucid" width="1212.76" height="867.42"><g transform="translate(1361 220)" lucid:page-tab-id="0_0"><path d="M-1500-500H0v1500h-1500z" fill="#fff"/><path d="M-520-40c22.1 0 40 17.9 40 40s-17.9 40-40 40h-80c-22.1 0-40-17.9-40-40s17.9-40 40-40z" stroke="#000" stroke-width="2" fill="#b8f5ed"/><use xlink:href="#a" transform="matrix(1,0,0,1,-635,-35) translate(42.6025390625 42.275390625)"/><path d="M-480-132a8 8 0 0 1 8-8h105.05a8 8 0 0 1 8 8v18.2a8 8 0 0 1-8 8H-472a8 8 0 0 1-8-8z" fill="none"/><use xlink:href="#b" transform="matrix(1,0,0,1,-475,-135) translate(0 19.775390625)"/><use xlink:href="#c" transform="matrix(1,0,0,1,-475,-135) translate(50.634765625 19.775390625)"/><path d="M-886.4-215.2a10.67 10.67 0 0 1 12.8 0l67.2 50.4a6 6 0 0 1 0 9.6l-67.2 50.4a10.67 10.67 0 0 1-12.8 0l-67.2-50.4a6 6 0 0 1 0-9.6z" stroke="#000" stroke-width="2" fill="#fcfcca"/><use xlink:href="#d" transform="matrix(1,0,0,1,-955,-215) translate(20.611979166666664 61.46701388888889)"/><use xlink:href="#e" transform="matrix(1,0,0,1,-955,-215) translate(65.87239583333333 61.46701388888889)"/><path d="M-802.5-160H-572a12 12 0 0 1 12 12v90.62" stroke="#3a414a" fill="none"/><path d="M-802.48-159.53h-.56l.04-.47-.04-.47h.56z" stroke="#3a414a" stroke-width=".05" fill="#3a414a"/><path d="M-560-42.62l-4.63-14.26h9.26z" stroke="#3a414a" fill="#3a414a"/><path d="M-480.5-122.9h-43a12 12 0 0 0-12 12v53.52" stroke="#3a414a" fill="none"/><path d="M-480-122.42h-.5v-.95h.5z" stroke="#3a414a" stroke-width=".05" fill="#3a414a"/><path d="M-535.5-42.62l-4.65-14.26h9.27z" stroke="#3a414a" fill="#3a414a"/><path d="M-680 80c22.1 0 40 17.9 40 40s-17.9 40-40 40h-80c-22.1 0-40-17.9-40-40s17.9-40 40-40z" stroke="#000" stroke-width="2" fill="#b8f5ed"/><use xlink:href="#f" transform="matrix(1,0,0,1,-795,85) translate(11.07421875 42.275390625)"/><use xlink:href="#g" transform="matrix(1,0,0,1,-795,85) translate(78.525390625 42.275390625)"/><path d="M-360 560c22.1 0 40 17.9 40 40s-17.9 40-40 40h-80c-22.1 0-40-17.9-40-40s17.9-40 40-40z" stroke="#000" stroke-width="2" fill="#b8f5ed"/><use xlink:href="#h" transform="matrix(1,0,0,1,-475,565) translate(30.0927734375 42.275390625)"/><path d="M-641.5 0H-708a12 12 0 0 0-12 12v50.62" stroke="#3a414a" fill="none"/><path d="M-641 0l.02.47h-.53v-.94h.53z" stroke="#3a414a" stroke-width=".05" fill="#3a414a"/><path d="M-720 77.38l-4.63-14.26h9.26z" stroke="#3a414a" fill="#3a414a"/><path d="M-478.5 0h66.5a12 12 0 0 1 12 12v530.62" stroke="#3a414a" fill="none"/><path d="M-478.5.47h-.53L-479 0l-.02-.47h.53z" stroke="#3a414a" stroke-width=".05" fill="#3a414a"/><path d="M-400 557.38l-4.63-14.26h9.26z" stroke="#3a414a" fill="#3a414a"/><path d="M-840 237.17c22.1 0 40 17.9 40 40s-17.9 40-40 40h-80c-22.1 0-40-17.9-40-40s17.9-40 40-40z" stroke="#000" stroke-width="2" fill="#b8f5ed"/><use xlink:href="#i" transform="matrix(1,0,0,1,-955,242.16690104166662) translate(34.53125 42.275390625)"/><path d="M-840 478c22.1 0 40 17.9 40 40s-17.9 40-40 40h-80c-22.1 0-40-17.9-40-40s17.9-40 40-40z" stroke="#000" stroke-width="2" fill="#b8f5ed"/><use xlink:href="#j" transform="matrix(1,0,0,1,-955,482.99319010416673) translate(35.2685546875 42.275390625)"/><path d="M-801.5 120H-868a12 12 0 0 0-12 12v87.78" stroke="#3a414a" fill="none"/><path d="M-801 120l.02.47h-.53v-.94h.53z" stroke="#3a414a" stroke-width=".05" fill="#3a414a"/><path d="M-880 234.55l-4.63-14.27h9.26z" stroke="#3a414a" fill="#3a414a"/><path d="M-798.5 518h27.5a12 12 0 0 0 12-12V289.16a12 12 0 0 0-12-12h-11.62" stroke="#3a414a" fill="none"/><path d="M-798.5 518.47h-.53l.03-.46-.02-.48h.53z" stroke="#3a414a" stroke-width=".05" fill="#3a414a"/><path d="M-797.38 277.17l14.26-4.64v9.27z" stroke="#3a414a" fill="#3a414a"/><path d="M-880 559.5V588a12 12 0 0 0 12 12h370.6" stroke="#3a414a" fill="none"/><path d="M-879.52 559.5h-.96v-.5h.96z" stroke="#3a414a" stroke-width=".05" fill="#3a414a"/><path d="M-482.62 600l-14.26 4.63v-9.26z" stroke="#3a414a" fill="#3a414a"/><path d="M-400 245.17a8 8 0 0 1 8-8h224a8 8 0 0 1 8 8v49.17a8 8 0 0 1-8 8h-224a8 8 0 0 1-8-8z" fill="none"/><use xlink:href="#k" transform="matrix(1,0,0,1,-395,242.16690104166662) translate(0 33.65863715277778)"/><use xlink:href="#l" transform="matrix(1,0,0,1,-395,242.16690104166662) translate(55.09006076388889 33.65863715277778)"/><use xlink:href="#m" transform="matrix(1,0,0,1,-395,242.16690104166662) translate(80.51215277777779 33.65863715277778)"/><use xlink:href="#n" transform="matrix(1,0,0,1,-395,242.16690104166662) translate(144.443359375 33.65863715277778)"/><path d="M-740 382.3a8 8 0 0 1 8-8h279.27a8 8 0 0 1 8 8v35.4a8 8 0 0 1-8 8H-732a8 8 0 0 1-8-8z" fill="none"/><use xlink:href="#o" transform="matrix(1,0,0,1,-735,379.2912239583333) translate(0 15.36566840277778)"/><use xlink:href="#p" transform="matrix(1,0,0,1,-735,379.2912239583333) translate(96.11328124999999 15.36566840277778)"/><use xlink:href="#q" transform="matrix(1,0,0,1,-735,379.2912239583333) translate(152.94270833333331 15.36566840277778)"/><use xlink:href="#r" transform="matrix(1,0,0,1,-735,379.2912239583333) translate(166.0525173611111 15.36566840277778)"/><use xlink:href="#s" transform="matrix(1,0,0,1,-735,379.2912239583333) translate(213.06098090277777 15.36566840277778)"/><use xlink:href="#t" transform="matrix(1,0,0,1,-735,379.2912239583333) translate(231.70030381944443 15.36566840277778)"/><use xlink:href="#u" transform="matrix(1,0,0,1,-735,379.2912239583333) translate(0 37.95160590277778)"/><use xlink:href="#v" transform="matrix(1,0,0,1,-735,379.2912239583333) translate(27.731119791666664 37.95160590277778)"/><use xlink:href="#w" transform="matrix(1,0,0,1,-735,379.2912239583333) translate(88.41905381944446 37.95160590277778)"/><use xlink:href="#x" transform="matrix(1,0,0,1,-735,379.2912239583333) translate(147.73980034722223 37.95160590277778)"/><use xlink:href="#y" transform="matrix(1,0,0,1,-735,379.2912239583333) translate(188.64149305555557 37.95160590277778)"/><use xlink:href="#z" transform="matrix(1,0,0,1,-735,379.2912239583333) translate(202.62478298611111 37.95160590277778)"/><path d="M-200 589.42a8 8 0 0 1 8-8h35.76a8 8 0 0 1 8 8v21.16a8 8 0 0 1-8 8H-192a8 8 0 0 1-8-8z" fill="none"/><use xlink:href="#A" transform="matrix(1,0,0,1,-195,586.4165494791666) translate(0 22.16460503472222)"/><path d="M-318.5 600h102.12" stroke="#3a414a" fill="none"/><path d="M-318.5 600.48h-.53l.03-.47-.02-.48h.53z" stroke="#3a414a" stroke-width=".05" fill="#3a414a"/><path d="M-201.62 600l-14.26 4.63v-9.26z" stroke="#3a414a" fill="#3a414a"/><path d="M-880 318.67v23.95" stroke="#3a414a" fill="none"/><path d="M-879.52 318.68h-.96v-.5h.96z" stroke="#3a414a" stroke-width=".05" fill="#3a414a"/><path d="M-880 357.38l-4.63-14.26h9.26z" stroke="#3a414a" fill="#3a414a"/><path d="M-1200 341.17c0 8.83-35.82 16-80 16s-80-7.17-80-16v-128c0-8.84 35.82-16 80-16s80 7.16 80 16z" stroke="#000" stroke-width="2" fill="#ffdda6"/><path d="M-1200 213.17c0 8.83-35.82 16-80 16s-80-7.17-80-16" stroke="#000" stroke-width="2" fill="none"/><g><use xlink:href="#B" transform="matrix(1,0,0,1,-1355,234.16690104166662) translate(16.24772135416668 67.16460503472223)"/></g><path d="M-1198.5 290h223.17" stroke="#3a414a" fill="none"/><path d="M-1198.5 290.48h-.5v-.96h.5z" stroke="#3a414a" stroke-width=".05" fill="#3a414a"/><path d="M-960.57 290l-14.26 4.62v-9.27z" stroke="#3a414a" fill="#3a414a"/><path d="M-960.78 269.9h-39.44a.06.06 0 0 0-.06.04.06.06 0 0 1-.06.06h-182.28" stroke="#3a414a" fill="none"/><path d="M-960.37 270.36h-.42v-.95h.6z" stroke="#3a414a" stroke-width=".05" fill="#3a414a"/><path d="M-1197.38 270l14.26-4.63v9.26z" stroke="#3a414a" fill="#3a414a"/><path d="M-820 626.58a8 8 0 0 1 8-8h249a8 8 0 0 1 8 8v12.83a8 8 0 0 1-8 8h-249a8 8 0 0 1-8-8z" fill="none"/><g><use xlink:href="#C" transform="matrix(1,0,0,1,-815,623.5834505208333) translate(0 15.158637152777779)"/><use xlink:href="#D" transform="matrix(1,0,0,1,-815,623.5834505208333) translate(76.17513020833331 15.158637152777779)"/><use xlink:href="#E" transform="matrix(1,0,0,1,-815,623.5834505208333) translate(101.23263888888887 15.158637152777779)"/><use xlink:href="#F" transform="matrix(1,0,0,1,-815,623.5834505208333) translate(130.33854166666666 15.158637152777779)"/><use xlink:href="#G" transform="matrix(1,0,0,1,-815,623.5834505208333) translate(190.40364583333331 15.158637152777779)"/><use xlink:href="#H" transform="matrix(1,0,0,1,-815,623.5834505208333) translate(230.78124999999997 15.158637152777779)"/></g><path d="M-840 360c22.1 0 40 17.9 40 40s-17.9 40-40 40h-80c-22.1 0-40-17.9-40-40s17.9-40 40-40z" stroke="#000" stroke-width="2" fill="#b8f5ed"/><g><use xlink:href="#I" transform="matrix(1,0,0,1,-955,365) translate(40.830078125 42.275390625)"/></g><path d="M-880 441.5v19.1" stroke="#3a414a" fill="none"/><path d="M-879.52 441.5h-.96v-.5h.96z" stroke="#3a414a" stroke-width=".05" fill="#3a414a"/><path d="M-880 475.38l-4.63-14.27h9.26z" stroke="#3a414a" fill="#3a414a"/><path d="M-1187.87 245.17a8 8 0 0 1 8-8H-968a8 8 0 0 1 8 8V258a8 8 0 0 1-8 8h-211.87a8 8 0 0 1-8-8z" fill="none"/><g><use xlink:href="#J" transform="matrix(1,0,0,1,-1182.871328125,242.16690104166662) translate(0 15.158637152777779)"/><use xlink:href="#K" transform="matrix(1,0,0,1,-1182.871328125,242.16690104166662) translate(73.63823784722221 15.158637152777779)"/><use xlink:href="#L" transform="matrix(1,0,0,1,-1182.871328125,242.16690104166662) translate(83.36046006944443 15.158637152777779)"/><use xlink:href="#K" transform="matrix(1,0,0,1,-1182.871328125,242.16690104166662) translate(159.04188368055554 15.158637152777779)"/><use xlink:href="#M" transform="matrix(1,0,0,1,-1182.871328125,242.16690104166662) translate(168.76410590277777 15.158637152777779)"/></g><defs><path d="M135 0v-1490h581c339 0 533 192 533 485 0 204-94 351-264 424L1302 0H964L680-532H440V0H135zm305-779h220c186 0 274-77 274-226 0-150-88-233-275-233H440v459" id="N"/><path d="M628 22C291 22 81-210 81-554c0-346 210-578 547-578 336 0 547 232 547 578 0 344-211 576-547 576zm0-236c160 0 242-146 242-341 0-197-82-341-242-341S387-753 387-555c0 195 81 341 241 341" id="O"/><path d="M513 14c-232 0-385-159-385-421v-711h300v659c0 139 76 222 202 222 127 0 217-86 217-234v-647h301V0H864l-4-232C797-74 683 14 513 14" id="P"/><path d="M683-1118v229H474v562c0 71 29 104 102 104 23 0 73-7 95-13l43 225C647 9 580 16 520 16 296 16 174-96 174-301v-588H20v-229h154v-266h300v266h209" id="Q"/><path d="M633 22C291 22 81-200 81-553c0-345 210-579 537-579 292 0 525 185 525 567v84H378c7 183 109 277 260 277 105 0 184-46 216-132l272 51C1071-99 893 22 633 22zM380-669h474c-15-146-94-237-233-237-143 0-229 99-241 237" id="R"/><path d="M128 0v-1118h290v195h12c54-169 184-238 367-200v268c-27-8-86-15-130-15-138 0-239 95-239 234V0H128" id="S"/><g id="a"><use transform="matrix(0.009765625,0,0,0.009765625,0,0)" xlink:href="#N"/><use transform="matrix(0.009765625,0,0,0.009765625,12.890625,0)" xlink:href="#O"/><use transform="matrix(0.009765625,0,0,0.009765625,25.15625,0)" xlink:href="#P"/><use transform="matrix(0.009765625,0,0,0.009765625,37.607421875,0)" xlink:href="#Q"/><use transform="matrix(0.009765625,0,0,0.009765625,44.736328125,0)" xlink:href="#R"/><use transform="matrix(0.009765625,0,0,0.009765625,56.650390625,0)" xlink:href="#S"/></g><path d="M750 21c-371 0-615-218-615-544v-967h305v942c0 174 123 299 310 299s309-125 309-299v-942h306v967c0 326-247 544-615 544" id="T"/><path d="M572 22C302 22 117-98 78-306l279-48c29 105 101 156 224 156 114 0 185-48 185-115 0-118-228-130-337-155-215-49-322-150-322-317 0-215 187-347 470-347 265 0 424 116 466 298l-266 47c-24-76-87-130-196-130-98 0-174 46-174 113 0 56 38 95 144 117l201 40c216 44 320 143 320 302 0 220-207 367-500 367" id="U"/><g id="b"><use transform="matrix(0.009765625,0,0,0.009765625,0,0)" xlink:href="#T"/><use transform="matrix(0.009765625,0,0,0.009765625,14.638671875,0)" xlink:href="#U"/><use transform="matrix(0.009765625,0,0,0.009765625,25.83984375,0)" xlink:href="#R"/><use transform="matrix(0.009765625,0,0,0.009765625,37.75390625,0)" xlink:href="#S"/></g><path d="M789 20C394 20 94-260 94-744c0-487 300-766 695-766s695 279 695 766c0 264-89 467-233 597l215 271h-285L1058-29C976 3 886 20 789 20zm-94-532h261l108 139c70-83 110-208 110-371 0-321-154-495-385-495s-385 175-385 495c0 356 184 537 481 482" id="V"/><path d="M120 396l69-226c123 42 245 23 254-107l8-60L31-1118h319c87 288 199 559 259 872 72-308 185-583 277-872h315L726 132c-68 181-186 294-410 294-79 0-153-13-196-30" id="W"/><g id="c"><use transform="matrix(0.009765625,0,0,0.009765625,0,0)" xlink:href="#V"/><use transform="matrix(0.009765625,0,0,0.009765625,15.537109375,0)" xlink:href="#P"/><use transform="matrix(0.009765625,0,0,0.009765625,27.98828125,0)" xlink:href="#R"/><use transform="matrix(0.009765625,0,0,0.009765625,39.90234375,0)" xlink:href="#S"/><use transform="matrix(0.009765625,0,0,0.009765625,48.359375,0)" xlink:href="#W"/></g><path d="M786 20C389 20 94-260 94-744c0-487 299-766 692-766 339 0 597 194 641 529h-309c-28-162-156-258-326-258-233 0-388 179-388 495 0 323 157 493 387 493 170 0 298-97 328-259h309c-34 277-266 530-642 530" id="X"/><path d="M428-647V0H128v-1490h294v586c65-146 175-228 341-228 232 0 385 159 385 421V0H847v-659c0-139-76-222-202-222-128 0-217 86-217 234" id="Y"/><path d="M440 22C227 22 68-92 68-313c0-250 202-322 422-343 195-21 271-24 271-105 0-95-63-149-175-149-116 0-187 57-211 129l-275-46c57-194 237-305 487-305 240 0 474 108 474 379V0H777v-155h-10C713-51 605 22 440 22zm85-211c140 0 238-93 238-211v-121c-37 26-156 42-222 51-111 16-185 59-185 149 0 87 70 132 169 132" id="Z"/><g id="d"><use transform="matrix(0.008680555555555556,0,0,0.008680555555555556,0,0)" xlink:href="#X"/><use transform="matrix(0.008680555555555556,0,0,0.008680555555555556,13.151041666666668,0)" xlink:href="#Y"/><use transform="matrix(0.008680555555555556,0,0,0.008680555555555556,24.21875,0)" xlink:href="#Z"/><use transform="matrix(0.008680555555555556,0,0,0.008680555555555556,34.53993055555556,0)" xlink:href="#Q"/></g><path d="M135 0v-1490h305v602h649v-602h306V0h-306v-635H440V0H135" id="aa"/><path d="M128 0v-1118h300V0H128zm150-1264c-91 0-165-68-165-154 0-85 74-154 165-154 90 0 165 69 165 154 0 86-75 154-165 154" id="ab"/><g id="e"><use transform="matrix(0.008680555555555556,0,0,0.008680555555555556,0,0)" xlink:href="#aa"/><use transform="matrix(0.008680555555555556,0,0,0.008680555555555556,13.28125,0)" xlink:href="#ab"/><use transform="matrix(0.008680555555555556,0,0,0.008680555555555556,18.098958333333336,0)" xlink:href="#U"/><use transform="matrix(0.008680555555555556,0,0,0.008680555555555556,28.055555555555557,0)" xlink:href="#Q"/><use transform="matrix(0.008680555555555556,0,0,0.008680555555555556,34.392361111111114,0)" xlink:href="#O"/><use transform="matrix(0.008680555555555556,0,0,0.008680555555555556,45.29513888888889,0)" xlink:href="#S"/><use transform="matrix(0.008680555555555556,0,0,0.008680555555555556,52.81250000000001,0)" xlink:href="#W"/></g><path d="M750-1118v229H516V0H217v-889H20v-229h197v-86c0-238 156-356 363-356 94 0 178 20 215 31l-54 226c-25-7-61-15-100-15-123-3-131 84-125 200h234" id="ac"/><path d="M428-647V0H128v-1118h283l4 231c63-156 176-245 348-245 232 0 384 159 384 421V0H847v-659c0-139-76-222-202-222-128 0-217 86-217 234" id="ad"/><g id="f"><use transform="matrix(0.009765625,0,0,0.009765625,0,0)" xlink:href="#N"/><use transform="matrix(0.009765625,0,0,0.009765625,12.890625,0)" xlink:href="#R"/><use transform="matrix(0.009765625,0,0,0.009765625,24.8046875,0)" xlink:href="#ac"/><use transform="matrix(0.009765625,0,0,0.009765625,32.9296875,0)" xlink:href="#ab"/><use transform="matrix(0.009765625,0,0,0.009765625,38.349609375,0)" xlink:href="#ad"/><use transform="matrix(0.009765625,0,0,0.009765625,50.80078125,0)" xlink:href="#R"/></g><g id="g"><use transform="matrix(0.009765625,0,0,0.009765625,0,0)" xlink:href="#V"/><use transform="matrix(0.009765625,0,0,0.009765625,15.537109375,0)" xlink:href="#P"/><use transform="matrix(0.009765625,0,0,0.009765625,27.98828125,0)" xlink:href="#R"/><use transform="matrix(0.009765625,0,0,0.009765625,39.90234375,0)" xlink:href="#S"/><use transform="matrix(0.009765625,0,0,0.009765625,48.359375,0)" xlink:href="#W"/></g><path d="M795 20C377 20 94-272 94-743c0-483 302-767 694-767 335 0 593 206 635 500h-310c-42-142-154-229-320-229-230 0-389 177-389 493s154 495 393 495c212 0 340-120 345-311H818v-232h620v186c0 391-269 628-643 628" id="ae"/><g id="h"><use transform="matrix(0.009765625,0,0,0.009765625,0,0)" xlink:href="#ae"/><use transform="matrix(0.009765625,0,0,0.009765625,15.009765625,0)" xlink:href="#R"/><use transform="matrix(0.009765625,0,0,0.009765625,26.923828125,0)" xlink:href="#ad"/><use transform="matrix(0.009765625,0,0,0.009765625,39.375,0)" xlink:href="#R"/><use transform="matrix(0.009765625,0,0,0.009765625,51.2890625,0)" xlink:href="#S"/><use transform="matrix(0.009765625,0,0,0.009765625,59.16015625,0)" xlink:href="#Z"/><use transform="matrix(0.009765625,0,0,0.009765625,70.771484375,0)" xlink:href="#Q"/><use transform="matrix(0.009765625,0,0,0.009765625,77.900390625,0)" xlink:href="#R"/></g><path d="M443 0L31-1118h319c90 293 199 572 268 885 66-313 175-593 264-885h315L784 0H443" id="af"/><g id="i"><use transform="matrix(0.009765625,0,0,0.009765625,0,0)" xlink:href="#N"/><use transform="matrix(0.009765625,0,0,0.009765625,12.890625,0)" xlink:href="#R"/><use transform="matrix(0.009765625,0,0,0.009765625,24.8046875,0)" xlink:href="#Q"/><use transform="matrix(0.009765625,0,0,0.009765625,32.12890625,0)" xlink:href="#S"/><use transform="matrix(0.009765625,0,0,0.009765625,40.419921875,0)" xlink:href="#ab"/><use transform="matrix(0.009765625,0,0,0.009765625,45.83984375,0)" xlink:href="#R"/><use transform="matrix(0.009765625,0,0,0.009765625,57.392578125,0)" xlink:href="#af"/><use transform="matrix(0.009765625,0,0,0.009765625,69.0234375,0)" xlink:href="#R"/></g><path d="M571 0L49-1490h339c138 427 271 775 384 1244 111-471 237-815 371-1244h337L970 0H571" id="ag"/><path d="M428-1490V0H128v-1490h300" id="ah"/><path d="M537 19C279 19 81-185 81-557c0-382 206-575 454-575 190 0 278 113 318 202h10v-560h300V0H868v-179h-15C812-89 719 19 537 19zm92-241c153 0 240-134 240-336 0-203-86-334-240-334-158 0-240 138-240 334 0 197 84 336 240 336" id="ai"/><g id="j"><use transform="matrix(0.009765625,0,0,0.009765625,0,0)" xlink:href="#ag"/><use transform="matrix(0.009765625,0,0,0.009765625,13.75,0)" xlink:href="#Z"/><use transform="matrix(0.009765625,0,0,0.009765625,25.361328125,0)" xlink:href="#ah"/><use transform="matrix(0.009765625,0,0,0.009765625,30.78125,0)" xlink:href="#ab"/><use transform="matrix(0.009765625,0,0,0.009765625,36.201171875,0)" xlink:href="#ai"/><use transform="matrix(0.009765625,0,0,0.009765625,48.80859375,0)" xlink:href="#Z"/><use transform="matrix(0.009765625,0,0,0.009765625,60.419921875,0)" xlink:href="#Q"/><use transform="matrix(0.009765625,0,0,0.009765625,67.548828125,0)" xlink:href="#R"/></g><path fill="#008a0e" d="M659 0H135v-1490h529c448 0 721 280 721 744 0 466-273 746-726 746zM440-263h204c287 0 437-148 437-483 0-333-150-481-435-481H440v964" id="aj"/><path fill="#008a0e" d="M128 0v-1118h300V0H128zm150-1264c-91 0-165-68-165-154 0-85 74-154 165-154 90 0 165 69 165 154 0 86-75 154-165 154" id="ak"/><path fill="#008a0e" d="M128 0v-1118h290v195h12c54-169 184-238 367-200v268c-27-8-86-15-130-15-138 0-239 95-239 234V0H128" id="al"/><path fill="#008a0e" d="M633 22C291 22 81-200 81-553c0-345 210-579 537-579 292 0 525 185 525 567v84H378c7 183 109 277 260 277 105 0 184-46 216-132l272 51C1071-99 893 22 633 22zM380-669h474c-15-146-94-237-233-237-143 0-229 99-241 237" id="am"/><path fill="#008a0e" d="M628 22C291 22 81-210 81-554c0-346 210-578 547-578 265 0 455 142 497 372l-279 52c-25-116-99-188-215-188-160 0-244 139-244 341 0 200 84 341 244 341 116 0 193-74 217-195l279 51C1085-123 896 22 628 22" id="an"/><path fill="#008a0e" d="M683-1118v229H474v562c0 71 29 104 102 104 23 0 73-7 95-13l43 225C647 9 580 16 520 16 296 16 174-96 174-301v-588H20v-229h154v-266h300v266h209" id="ao"/><path fill="#008a0e" d="M342-723c-98 0-173-75-173-172s75-172 173-172 173 75 173 172-75 172-173 172zm0 742c-98 0-173-75-173-172s75-172 173-172 173 75 173 172S440 19 342 19" id="ap"/><g id="k"><use transform="matrix(0.007595486111111111,0,0,0.007595486111111111,0,0)" xlink:href="#aj"/><use transform="matrix(0.007595486111111111,0,0,0.007595486111111111,11.233723958333334,0)" xlink:href="#ak"/><use transform="matrix(0.007595486111111111,0,0,0.007595486111111111,15.44921875,0)" xlink:href="#al"/><use transform="matrix(0.007595486111111111,0,0,0.007595486111111111,21.40407986111111,0)" xlink:href="#am"/><use transform="matrix(0.007595486111111111,0,0,0.007595486111111111,30.670572916666664,0)" xlink:href="#an"/><use transform="matrix(0.007595486111111111,0,0,0.007595486111111111,39.82313368055556,0)" xlink:href="#ao"/><use transform="matrix(0.007595486111111111,0,0,0.007595486111111111,45.51974826388889,0)" xlink:href="#ap"/></g><path d="M180 0v-1490h224l606 953c40 63 108 177 176 312-27-437-7-821-13-1265h190V0h-226C860-448 622-778 356-1262c27 476 11 792 15 1262H180" id="aq"/><path d="M613 24c-304 0-509-231-509-576 0-350 205-580 509-580 305 0 511 230 511 580 0 345-206 576-511 576zm0-161c226 0 329-195 329-415 0-222-103-419-329-419-223 0-326 196-326 419 0 220 103 415 326 415" id="ar"/><g id="l"><use transform="matrix(0.007595486111111111,0,0,0.007595486111111111,0,0)" xlink:href="#aq"/><use transform="matrix(0.007595486111111111,0,0,0.007595486111111111,11.719835069444445,0)" xlink:href="#ar"/></g><path d="M158 0v-1118h174v172h12c41-113 157-188 290-188 26 0 70 2 91 3v181c-11-2-60-10-108-10-161 0-279 109-279 260V0H158" id="as"/><path d="M628 24c-324 0-524-230-524-574 0-343 198-582 503-582 237 0 487 146 487 559v75H286c9 234 145 362 343 362 132 0 231-58 273-172l174 48C1024-91 857 24 628 24zM287-650h624c-17-190-120-322-304-322-192 0-309 151-320 322" id="at"/><path d="M598-1118v154H368v674c0 100 37 144 132 144 23 0 62-6 92-12L629-6c-37 13-88 20-134 20-193 0-307-107-307-290v-688H20v-154h168v-266h180v266h230" id="au"/><path d="M158 0v-1118h180V0H158zm91-1301c-68 0-125-53-125-119s57-119 125-119c69 0 126 53 126 119s-57 119-126 119" id="av"/><path d="M481 0L54-1118h197c107 314 236 620 325 951 87-331 217-637 324-951h197L670 0H481" id="aw"/><path d="M471 26C259 26 90-98 90-318c0-256 228-303 435-329 202-27 287-16 287-108 0-139-79-219-234-219-161 0-248 86-283 164l-173-57c86-203 278-265 451-265 150 0 419 46 419 395V0H815v-152h-12C765-73 660 26 471 26zm31-159c199 0 310-134 310-271v-155c-30 35-226 55-295 64-131 17-246 59-246 186 0 116 97 176 231 176" id="ax"/><path d="M338-1490V0H158v-1490h180" id="ay"/><g id="m"><use transform="matrix(0.007595486111111111,0,0,0.007595486111111111,0,0)" xlink:href="#as"/><use transform="matrix(0.007595486111111111,0,0,0.007595486111111111,5.597873263888889,0)" xlink:href="#at"/><use transform="matrix(0.007595486111111111,0,0,0.007595486111111111,14.666883680555555,0)" xlink:href="#au"/><use transform="matrix(0.007595486111111111,0,0,0.007595486111111111,19.755859375,0)" xlink:href="#as"/><use transform="matrix(0.007595486111111111,0,0,0.007595486111111111,25.855034722222225,0)" xlink:href="#av"/><use transform="matrix(0.007595486111111111,0,0,0.007595486111111111,29.622395833333336,0)" xlink:href="#at"/><use transform="matrix(0.007595486111111111,0,0,0.007595486111111111,38.38758680555556,0)" xlink:href="#aw"/><use transform="matrix(0.007595486111111111,0,0,0.007595486111111111,47.05403645833333,0)" xlink:href="#ax"/><use transform="matrix(0.007595486111111111,0,0,0.007595486111111111,55.78884548611111,0)" xlink:href="#ay"/></g><path d="M577 24c-279 0-473-224-473-580 0-354 195-576 474-576 218 0 287 134 324 193h14v-551h180V0H922v-173h-20C865-111 790 24 577 24zm27-161c203 0 314-172 314-421 0-247-108-413-314-413-212 0-317 181-317 413 0 235 108 421 317 421" id="az"/><g id="n"><use transform="matrix(0.007595486111111111,0,0,0.007595486111111111,0,0)" xlink:href="#aq"/><use transform="matrix(0.007595486111111111,0,0,0.007595486111111111,11.719835069444445,0)" xlink:href="#at"/><use transform="matrix(0.007595486111111111,0,0,0.007595486111111111,20.78884548611111,0)" xlink:href="#at"/><use transform="matrix(0.007595486111111111,0,0,0.007595486111111111,29.85785590277778,0)" xlink:href="#az"/><use transform="matrix(0.007595486111111111,0,0,0.007595486111111111,39.382595486111114,0)" xlink:href="#at"/><use transform="matrix(0.007595486111111111,0,0,0.007595486111111111,48.45160590277778,0)" xlink:href="#az"/></g><path fill="#e81313" d="M440-1490V0H135v-1490h305" id="aA"/><path fill="#e81313" d="M428-647V0H128v-1118h283l4 231c63-156 176-245 348-245 232 0 384 159 384 421V0H847v-659c0-139-76-222-202-222-128 0-217 86-217 234" id="aB"/><path fill="#e81313" d="M572 22C302 22 117-98 78-306l279-48c29 105 101 156 224 156 114 0 185-48 185-115 0-118-228-130-337-155-215-49-322-150-322-317 0-215 187-347 470-347 265 0 424 116 466 298l-266 47c-24-76-87-130-196-130-98 0-174 46-174 113 0 56 38 95 144 117l201 40c216 44 320 143 320 302 0 220-207 367-500 367" id="aC"/><path fill="#e81313" d="M513 14c-232 0-385-159-385-421v-711h300v659c0 139 76 222 202 222 127 0 217-86 217-234v-647h301V0H864l-4-232C797-74 683 14 513 14" id="aD"/><path fill="#e81313" d="M750-1118v229H516V0H217v-889H20v-229h197v-86c0-238 156-356 363-356 94 0 178 20 215 31l-54 226c-25-7-61-15-100-15-123-3-131 84-125 200h234" id="aE"/><path fill="#e81313" d="M128 0v-1118h300V0H128zm150-1264c-91 0-165-68-165-154 0-85 74-154 165-154 90 0 165 69 165 154 0 86-75 154-165 154" id="aF"/><path fill="#e81313" d="M628 22C291 22 81-210 81-554c0-346 210-578 547-578 265 0 455 142 497 372l-279 52c-25-116-99-188-215-188-160 0-244 139-244 341 0 200 84 341 244 341 116 0 193-74 217-195l279 51C1085-123 896 22 628 22" id="aG"/><path fill="#e81313" d="M633 22C291 22 81-200 81-553c0-345 210-579 537-579 292 0 525 185 525 567v84H378c7 183 109 277 260 277 105 0 184-46 216-132l272 51C1071-99 893 22 633 22zM380-669h474c-15-146-94-237-233-237-143 0-229 99-241 237" id="aH"/><path fill="#e81313" d="M683-1118v229H474v562c0 71 29 104 102 104 23 0 73-7 95-13l43 225C647 9 580 16 520 16 296 16 174-96 174-301v-588H20v-229h154v-266h300v266h209" id="aI"/><path fill="#e81313" d="M342-723c-98 0-173-75-173-172s75-172 173-172 173 75 173 172-75 172-173 172zm0 742c-98 0-173-75-173-172s75-172 173-172 173 75 173 172S440 19 342 19" id="aJ"/><g id="o"><use transform="matrix(0.007595486111111111,0,0,0.007595486111111111,0,0)" xlink:href="#aA"/><use transform="matrix(0.007595486111111111,0,0,0.007595486111111111,4.367404513888888,0)" xlink:href="#aB"/><use transform="matrix(0.007595486111111111,0,0,0.007595486111111111,14.051649305555554,0)" xlink:href="#aC"/><use transform="matrix(0.007595486111111111,0,0,0.007595486111111111,22.763671875,0)" xlink:href="#aD"/><use transform="matrix(0.007595486111111111,0,0,0.007595486111111111,32.447916666666664,0)" xlink:href="#aE"/><use transform="matrix(0.007595486111111111,0,0,0.007595486111111111,37.99262152777778,0)" xlink:href="#aE"/><use transform="matrix(0.007595486111111111,0,0,0.007595486111111111,44.31206597222222,0)" xlink:href="#aF"/><use transform="matrix(0.007595486111111111,0,0,0.007595486111111111,48.527560763888886,0)" xlink:href="#aG"/><use transform="matrix(0.007595486111111111,0,0,0.007595486111111111,57.68012152777777,0)" xlink:href="#aF"/><use transform="matrix(0.007595486111111111,0,0,0.007595486111111111,61.895616319444436,0)" xlink:href="#aH"/><use transform="matrix(0.007595486111111111,0,0,0.007595486111111111,71.16210937499999,0)" xlink:href="#aB"/><use transform="matrix(0.007595486111111111,0,0,0.007595486111111111,80.84635416666666,0)" xlink:href="#aI"/><use transform="matrix(0.007595486111111111,0,0,0.007595486111111111,86.54296874999999,0)" xlink:href="#aJ"/></g><path d="M537 14c-226 0-379-139-379-422v-710h180v695c0 172 97 275 253 275 160 0 281-109 281-300v-670h181V0H879v-209C806-46 684 14 537 14" id="aK"/><path d="M338-670V0H158v-1118h173l1 207c72-158 192-221 342-221 226 0 378 139 378 422V0H872v-695c0-172-96-275-252-275-161 0-282 109-282 300" id="aL"/><path d="M538 24C308 24 148-78 108-271l171-41c32 123 123 178 257 178 156 0 256-77 256-169 0-77-54-128-164-154l-186-44c-203-48-300-148-300-305 0-192 176-326 414-326 230 0 351 112 402 269l-163 42c-31-80-94-158-238-158-133 0-233 69-233 162 0 83 57 129 188 160l169 40c203 48 298 149 298 302 0 196-179 339-441 339" id="aM"/><g id="p"><use transform="matrix(0.007595486111111111,0,0,0.007595486111111111,0,0)" xlink:href="#as"/><use transform="matrix(0.007595486111111111,0,0,0.007595486111111111,5.597873263888889,0)" xlink:href="#at"/><use transform="matrix(0.007595486111111111,0,0,0.007595486111111111,14.666883680555555,0)" xlink:href="#au"/><use transform="matrix(0.007595486111111111,0,0,0.007595486111111111,19.755859375,0)" xlink:href="#aK"/><use transform="matrix(0.007595486111111111,0,0,0.007595486111111111,28.953993055555557,0)" xlink:href="#as"/><use transform="matrix(0.007595486111111111,0,0,0.007595486111111111,35.05316840277778,0)" xlink:href="#aL"/><use transform="matrix(0.007595486111111111,0,0,0.007595486111111111,44.24370659722222,0)" xlink:href="#aM"/></g><use transform="matrix(0.007595486111111111,0,0,0.007595486111111111,0,0)" xlink:href="#ax" id="q"/><path d="M1096 418H916v-591h-14C865-111 790 24 577 24c-279 0-473-224-473-580 0-354 195-576 474-576 218 0 287 134 324 193h20v-179h174V418zM604-137c203 0 314-172 314-421 0-247-108-413-314-413-212 0-317 181-317 413 0 235 108 421 317 421" id="aN"/><path d="M140 405l46-156c120 36 205 19 263-150l32-93L54-1118h197c107 313 237 620 324 950 87-331 219-637 326-950h196L606 167c-68 178-176 259-334 259-64 0-113-12-132-21" id="aO"/><g id="r"><use transform="matrix(0.007595486111111111,0,0,0.007595486111111111,0,0)" xlink:href="#aN"/><use transform="matrix(0.007595486111111111,0,0,0.007595486111111111,9.524739583333334,0)" xlink:href="#aK"/><use transform="matrix(0.007595486111111111,0,0,0.007595486111111111,18.72287326388889,0)" xlink:href="#at"/><use transform="matrix(0.007595486111111111,0,0,0.007595486111111111,27.791883680555557,0)" xlink:href="#as"/><use transform="matrix(0.007595486111111111,0,0,0.007595486111111111,33.89105902777778,0)" xlink:href="#aO"/></g><g id="s"><use transform="matrix(0.007595486111111111,0,0,0.007595486111111111,0,0)" xlink:href="#au"/><use transform="matrix(0.007595486111111111,0,0,0.007595486111111111,4.937065972222222,0)" xlink:href="#ar"/></g><g id="t"><use transform="matrix(0.007595486111111111,0,0,0.007595486111111111,0,0)" xlink:href="#as"/><use transform="matrix(0.007595486111111111,0,0,0.007595486111111111,5.597873263888889,0)" xlink:href="#at"/><use transform="matrix(0.007595486111111111,0,0,0.007595486111111111,14.666883680555555,0)" xlink:href="#aM"/><use transform="matrix(0.007595486111111111,0,0,0.007595486111111111,22.877604166666664,0)" xlink:href="#ar"/><use transform="matrix(0.007595486111111111,0,0,0.007595486111111111,32.20486111111111,0)" xlink:href="#ay"/><use transform="matrix(0.007595486111111111,0,0,0.007595486111111111,36.048177083333336,0)" xlink:href="#aw"/><use transform="matrix(0.007595486111111111,0,0,0.007595486111111111,44.486762152777786,0)" xlink:href="#at"/></g><path d="M338-670V0H158v-1490h180v566c73-149 190-208 336-208 226 0 379 139 379 422V0H872v-695c0-172-96-275-252-275-161 0-282 109-282 300" id="aP"/><g id="u"><use transform="matrix(0.007595486111111111,0,0,0.007595486111111111,0,0)" xlink:href="#au"/><use transform="matrix(0.007595486111111111,0,0,0.007595486111111111,5.088975694444445,0)" xlink:href="#aP"/><use transform="matrix(0.007595486111111111,0,0,0.007595486111111111,14.287109375,0)" xlink:href="#at"/></g><path d="M158 0v-1118h175l1 205c55-151 181-225 313-225 147 0 245 90 285 228 53-141 190-228 352-228 194 0 352 125 352 384V0h-181v-749c0-161-105-225-225-225-151 0-243 103-243 244V0H807v-767c0-124-93-207-219-207-131 0-250 92-250 270V0H158" id="aQ"/><path d="M611 442c-248 0-391-105-460-228l146-94c47 65 117 165 314 165 178 0 307-82 307-266v-224h-17C863-141 792-18 576-18c-268 0-472-195-472-546 0-346 197-568 476-568 216 0 288 133 326 193h17v-179h175V29c0 289-215 413-487 413zm-5-620c203 0 314-146 314-390 0-237-108-403-314-403-213 0-319 180-319 403 0 230 109 390 319 390" id="aR"/><g id="v"><use transform="matrix(0.007595486111111111,0,0,0.007595486111111111,0,0)" xlink:href="#aQ"/><use transform="matrix(0.007595486111111111,0,0,0.007595486111111111,13.626302083333334,0)" xlink:href="#av"/><use transform="matrix(0.007595486111111111,0,0,0.007595486111111111,17.393663194444446,0)" xlink:href="#aM"/><use transform="matrix(0.007595486111111111,0,0,0.007595486111111111,25.604383680555557,0)" xlink:href="#aM"/><use transform="matrix(0.007595486111111111,0,0,0.007595486111111111,33.81510416666667,0)" xlink:href="#av"/><use transform="matrix(0.007595486111111111,0,0,0.007595486111111111,37.582465277777786,0)" xlink:href="#aL"/><use transform="matrix(0.007595486111111111,0,0,0.007595486111111111,46.77300347222223,0)" xlink:href="#aR"/></g><path d="M613 24c-304 0-509-231-509-576 0-350 205-580 509-580 216 0 392 114 453 309l-173 49c-33-115-133-197-280-197-223 0-326 196-326 419 0 220 103 415 326 415 150 0 252-85 285-206l172 49C1010-95 832 24 613 24" id="aS"/><path d="M65 0l393-574-370-544h210c88 136 192 297 267 435 67-142 176-302 264-435h206L661-564 1053 0H844c-94-144-206-310-287-458C484-308 366-142 273 0H65" id="aT"/><g id="w"><use transform="matrix(0.007595486111111111,0,0,0.007595486111111111,0,0)" xlink:href="#aS"/><use transform="matrix(0.007595486111111111,0,0,0.007595486111111111,8.88671875,0)" xlink:href="#ar"/><use transform="matrix(0.007595486111111111,0,0,0.007595486111111111,18.213975694444443,0)" xlink:href="#aL"/><use transform="matrix(0.007595486111111111,0,0,0.007595486111111111,27.404513888888886,0)" xlink:href="#au"/><use transform="matrix(0.007595486111111111,0,0,0.007595486111111111,32.34157986111111,0)" xlink:href="#at"/><use transform="matrix(0.007595486111111111,0,0,0.007595486111111111,41.061197916666664,0)" xlink:href="#aT"/><use transform="matrix(0.007595486111111111,0,0,0.007595486111111111,49.85677083333333,0)" xlink:href="#au"/></g><path d="M218-607c0-325 108-727 258-974h175c-155 315-250 682-250 974 0 265 78 531 250 886H476C306-10 218-315 218-607" id="aU"/><g id="x"><use transform="matrix(0.007595486111111111,0,0,0.007595486111111111,0,0)" xlink:href="#aU"/><use transform="matrix(0.007595486111111111,0,0,0.007595486111111111,5.673828125,0)" xlink:href="#aQ"/><use transform="matrix(0.007595486111111111,0,0,0.007595486111111111,19.300130208333336,0)" xlink:href="#ax"/><use transform="matrix(0.007595486111111111,0,0,0.007595486111111111,28.034939236111114,0)" xlink:href="#aT"/></g><path d="M635 20c-292 0-500-160-510-396h192c11 142 145 229 315 229 187 0 323-105 323-260 0-161-125-274-346-274H488v-165h121c174 0 294-100 294-254 0-148-104-245-266-245-152 0-291 85-297 230H157c8-234 222-395 484-395 278 0 448 188 448 400 0 168-95 291-247 336v12c190 31 301 169 301 357 0 244-216 425-508 425" id="aV"/><use transform="matrix(0.007595486111111111,0,0,0.007595486111111111,0,0)" xlink:href="#aV" id="y"/><path d="M158 418v-1536h174v179h20c37-59 106-193 324-193 279 0 474 222 474 576 0 356-194 580-473 580-213 0-288-135-325-197h-14v591H158zm492-555c209 0 317-186 317-421 0-232-105-413-317-413-206 0-314 166-314 413 0 249 111 421 314 421" id="aW"/><path d="M96 279C273-86 346-350 346-607c0-292-95-659-250-974h175c150 246 258 650 258 974 0 297-91 602-258 886H96" id="aX"/><g id="z"><use transform="matrix(0.007595486111111111,0,0,0.007595486111111111,0,0)" xlink:href="#ax"/><use transform="matrix(0.007595486111111111,0,0,0.007595486111111111,8.734809027777777,0)" xlink:href="#au"/><use transform="matrix(0.007595486111111111,0,0,0.007595486111111111,13.444010416666666,0)" xlink:href="#au"/><use transform="matrix(0.007595486111111111,0,0,0.007595486111111111,18.38107638888889,0)" xlink:href="#at"/><use transform="matrix(0.007595486111111111,0,0,0.007595486111111111,27.450086805555557,0)" xlink:href="#aQ"/><use transform="matrix(0.007595486111111111,0,0,0.007595486111111111,41.07638888888889,0)" xlink:href="#aW"/><use transform="matrix(0.007595486111111111,0,0,0.007595486111111111,50.60112847222223,0)" xlink:href="#au"/><use transform="matrix(0.007595486111111111,0,0,0.007595486111111111,55.53819444444445,0)" xlink:href="#aM"/><use transform="matrix(0.007595486111111111,0,0,0.007595486111111111,63.74891493055556,0)" xlink:href="#aX"/></g><path d="M135 0v-1490h997v253H440v360h640v249H440v375h694V0H135" id="aY"/><g id="A"><use transform="matrix(0.010959201388888886,0,0,0.010959201388888886,0,0)" xlink:href="#aY"/><use transform="matrix(0.010959201388888886,0,0,0.010959201388888886,13.633246527777775,0)" xlink:href="#ad"/><use transform="matrix(0.010959201388888886,0,0,0.010959201388888886,27.606228298611104,0)" xlink:href="#ai"/></g><path d="M128 0v-1118h278l12 217c60-163 185-234 319-234 143 0 236 81 288 251 63-172 205-251 359-251 205 0 357 138 357 381V0h-301v-697c0-126-76-187-177-187-114 0-184 79-184 196V0H789v-705c0-109-72-179-174-179-106 0-187 74-187 208V0H128" id="aZ"/><path d="M659 0H135v-1490h529c448 0 721 280 721 744 0 466-273 746-726 746zM440-263h204c287 0 437-148 437-483 0-333-150-481-435-481H440v964" id="ba"/><path d="M135 0v-1490h591c327 0 492 160 492 383 0 177-115 286-268 320v15c168 8 326 140 326 361 0 236-176 411-512 411H135zm305-251h264c179 0 258-76 258-189 0-125-97-215-250-215H440v404zm0-613h241c131 0 228-74 228-194 0-109-79-183-222-183H440v377" id="bb"/><g id="B"><use transform="matrix(0.010959201388888886,0,0,0.010959201388888886,0,0)" xlink:href="#X"/><use transform="matrix(0.010959201388888886,0,0,0.010959201388888886,16.603190104166664,0)" xlink:href="#Y"/><use transform="matrix(0.010959201388888886,0,0,0.010959201388888886,30.576171874999993,0)" xlink:href="#S"/><use transform="matrix(0.010959201388888886,0,0,0.010959201388888886,39.16818576388888,0)" xlink:href="#O"/><use transform="matrix(0.010959201388888886,0,0,0.010959201388888886,52.93294270833332,0)" xlink:href="#aZ"/><use transform="matrix(0.010959201388888886,0,0,0.010959201388888886,73.41569010416666,0)" xlink:href="#Z"/><use transform="matrix(0.010959201388888886,0,0,0.010959201388888886,86.44618055555554,0)" xlink:href="#ba"/><use transform="matrix(0.010959201388888886,0,0,0.010959201388888886,102.6548394097222,0)" xlink:href="#bb"/></g><path fill="#008a0e" d="M572 22C302 22 117-98 78-306l279-48c29 105 101 156 224 156 114 0 185-48 185-115 0-118-228-130-337-155-215-49-322-150-322-317 0-215 187-347 470-347 265 0 424 116 466 298l-266 47c-24-76-87-130-196-130-98 0-174 46-174 113 0 56 38 95 144 117l201 40c216 44 320 143 320 302 0 220-207 367-500 367" id="bc"/><path fill="#008a0e" d="M513 14c-232 0-385-159-385-421v-711h300v659c0 139 76 222 202 222 127 0 217-86 217-234v-647h301V0H864l-4-232C797-74 683 14 513 14" id="bd"/><path fill="#008a0e" d="M750-1118v229H516V0H217v-889H20v-229h197v-86c0-238 156-356 363-356 94 0 178 20 215 31l-54 226c-25-7-61-15-100-15-123-3-131 84-125 200h234" id="be"/><path fill="#008a0e" d="M428-647V0H128v-1118h283l4 231c63-156 176-245 348-245 232 0 384 159 384 421V0H847v-659c0-139-76-222-202-222-128 0-217 86-217 234" id="bf"/><g id="C"><use transform="matrix(0.007595486111111111,0,0,0.007595486111111111,0,0)" xlink:href="#bc"/><use transform="matrix(0.007595486111111111,0,0,0.007595486111111111,8.712022569444445,0)" xlink:href="#bd"/><use transform="matrix(0.007595486111111111,0,0,0.007595486111111111,18.39626736111111,0)" xlink:href="#be"/><use transform="matrix(0.007595486111111111,0,0,0.007595486111111111,23.94097222222222,0)" xlink:href="#be"/><use transform="matrix(0.007595486111111111,0,0,0.007595486111111111,30.260416666666664,0)" xlink:href="#ak"/><use transform="matrix(0.007595486111111111,0,0,0.007595486111111111,34.47591145833333,0)" xlink:href="#an"/><use transform="matrix(0.007595486111111111,0,0,0.007595486111111111,43.628472222222214,0)" xlink:href="#ak"/><use transform="matrix(0.007595486111111111,0,0,0.007595486111111111,47.84396701388888,0)" xlink:href="#am"/><use transform="matrix(0.007595486111111111,0,0,0.007595486111111111,57.110460069444436,0)" xlink:href="#bf"/><use transform="matrix(0.007595486111111111,0,0,0.007595486111111111,66.7947048611111,0)" xlink:href="#ao"/></g><g id="D"><use transform="matrix(0.007595486111111111,0,0,0.007595486111111111,0,0)" xlink:href="#aU"/><use transform="matrix(0.007595486111111111,0,0,0.007595486111111111,5.499131944444445,0)" xlink:href="#ar"/><use transform="matrix(0.007595486111111111,0,0,0.007595486111111111,14.82638888888889,0)" xlink:href="#as"/></g><g id="E"><use transform="matrix(0.007595486111111111,0,0,0.007595486111111111,0,0)" xlink:href="#aV"/><use transform="matrix(0.007595486111111111,0,0,0.007595486111111111,9.608289930555555,0)" xlink:href="#as"/><use transform="matrix(0.007595486111111111,0,0,0.007595486111111111,15.206163194444443,0)" xlink:href="#az"/></g><g id="F"><use transform="matrix(0.007595486111111111,0,0,0.007595486111111111,0,0)" xlink:href="#ax"/><use transform="matrix(0.007595486111111111,0,0,0.007595486111111111,8.734809027777777,0)" xlink:href="#au"/><use transform="matrix(0.007595486111111111,0,0,0.007595486111111111,13.444010416666666,0)" xlink:href="#au"/><use transform="matrix(0.007595486111111111,0,0,0.007595486111111111,18.38107638888889,0)" xlink:href="#at"/><use transform="matrix(0.007595486111111111,0,0,0.007595486111111111,27.450086805555557,0)" xlink:href="#aQ"/><use transform="matrix(0.007595486111111111,0,0,0.007595486111111111,41.07638888888889,0)" xlink:href="#aW"/><use transform="matrix(0.007595486111111111,0,0,0.007595486111111111,50.60112847222223,0)" xlink:href="#au"/></g><g id="G"><use transform="matrix(0.007595486111111111,0,0,0.007595486111111111,0,0)" xlink:href="#aK"/><use transform="matrix(0.007595486111111111,0,0,0.007595486111111111,9.198133680555555,0)" xlink:href="#aM"/><use transform="matrix(0.007595486111111111,0,0,0.007595486111111111,17.408854166666664,0)" xlink:href="#at"/><use transform="matrix(0.007595486111111111,0,0,0.007595486111111111,26.47786458333333,0)" xlink:href="#az"/></g><g id="H"><use transform="matrix(0.007595486111111111,0,0,0.007595486111111111,0,0)" xlink:href="#aK"/><use transform="matrix(0.007595486111111111,0,0,0.007595486111111111,9.198133680555555,0)" xlink:href="#aW"/><use transform="matrix(0.007595486111111111,0,0,0.007595486111111111,18.548177083333336,0)" xlink:href="#aX"/></g><path d="M128 0v-1490h300v802h17l366-430h347L740-633 1179 0H826L514-456l-86 97V0H128" id="bg"/><g id="I"><use transform="matrix(0.009765625,0,0,0.009765625,0,0)" xlink:href="#N"/><use transform="matrix(0.009765625,0,0,0.009765625,12.890625,0)" xlink:href="#R"/><use transform="matrix(0.009765625,0,0,0.009765625,24.8046875,0)" xlink:href="#S"/><use transform="matrix(0.009765625,0,0,0.009765625,32.67578125,0)" xlink:href="#Z"/><use transform="matrix(0.009765625,0,0,0.009765625,44.287109375,0)" xlink:href="#ad"/><use transform="matrix(0.009765625,0,0,0.009765625,56.73828125,0)" xlink:href="#bg"/></g><path fill="#e81313" d="M128 0v-1118h278l12 217c60-163 185-234 319-234 143 0 236 81 288 251 63-172 205-251 359-251 205 0 357 138 357 381V0h-301v-697c0-126-76-187-177-187-114 0-184 79-184 196V0H789v-705c0-109-72-179-174-179-106 0-187 74-187 208V0H128" id="bh"/><path fill="#e81313" d="M440 22C227 22 68-92 68-313c0-250 202-322 422-343 195-21 271-24 271-105 0-95-63-149-175-149-116 0-187 57-211 129l-275-46c57-194 237-305 487-305 240 0 474 108 474 379V0H777v-155h-10C713-51 605 22 440 22zm85-211c140 0 238-93 238-211v-121c-37 26-156 42-222 51-111 16-185 59-185 149 0 87 70 132 169 132" id="bi"/><g id="J"><use transform="matrix(0.007595486111111111,0,0,0.007595486111111111,0,0)" xlink:href="#aC"/><use transform="matrix(0.007595486111111111,0,0,0.007595486111111111,8.712022569444445,0)" xlink:href="#aH"/><use transform="matrix(0.007595486111111111,0,0,0.007595486111111111,17.978515625,0)" xlink:href="#bh"/><use transform="matrix(0.007595486111111111,0,0,0.007595486111111111,32.174479166666664,0)" xlink:href="#bi"/><use transform="matrix(0.007595486111111111,0,0,0.007595486111111111,41.20551215277777,0)" xlink:href="#aB"/><use transform="matrix(0.007595486111111111,0,0,0.007595486111111111,50.889756944444436,0)" xlink:href="#aI"/><use transform="matrix(0.007595486111111111,0,0,0.007595486111111111,56.58637152777777,0)" xlink:href="#aF"/><use transform="matrix(0.007595486111111111,0,0,0.007595486111111111,60.801866319444436,0)" xlink:href="#aG"/></g><path fill="#e81313" d="M768-1560L288 224H28l480-1784h260" id="bj"/><use transform="matrix(0.007595486111111111,0,0,0.007595486111111111,0,0)" xlink:href="#bj" id="K"/><path fill="#e81313" d="M128 0v-1490h300v802h17l366-430h347L740-633 1179 0H826L514-456l-86 97V0H128" id="bk"/><path fill="#e81313" d="M120 396l69-226c123 42 245 23 254-107l8-60L31-1118h319c87 288 199 559 259 872 72-308 185-583 277-872h315L726 132c-68 181-186 294-410 294-79 0-153-13-196-30" id="bl"/><path fill="#e81313" d="M818-733v240H140v-240h678" id="bm"/><path fill="#e81313" d="M361 0L31-1118h315c68 295 127 523 188 845 63-317 128-551 199-845h276c71 296 131 525 196 846 57-321 119-552 186-846h319L1378 0h-305c-73-261-148-486-204-771C813-484 740-261 666 0H361" id="bn"/><path fill="#e81313" d="M628 22C291 22 81-210 81-554c0-346 210-578 547-578 336 0 547 232 547 578 0 344-211 576-547 576zm0-236c160 0 242-146 242-341 0-197-82-341-242-341S387-753 387-555c0 195 81 341 241 341" id="bo"/><path fill="#e81313" d="M128 0v-1118h290v195h12c54-169 184-238 367-200v268c-27-8-86-15-130-15-138 0-239 95-239 234V0H128" id="bp"/><path fill="#e81313" d="M537 19C279 19 81-185 81-557c0-382 206-575 454-575 190 0 278 113 318 202h10v-560h300V0H868v-179h-15C812-89 719 19 537 19zm92-241c153 0 240-134 240-336 0-203-86-334-240-334-158 0-240 138-240 334 0 197 84 336 240 336" id="bq"/><g id="L"><use transform="matrix(0.007595486111111111,0,0,0.007595486111111111,0,0)" xlink:href="#bk"/><use transform="matrix(0.007595486111111111,0,0,0.007595486111111111,8.67404513888889,0)" xlink:href="#aH"/><use transform="matrix(0.007595486111111111,0,0,0.007595486111111111,17.659505208333336,0)" xlink:href="#bl"/><use transform="matrix(0.007595486111111111,0,0,0.007595486111111111,26.409505208333336,0)" xlink:href="#bm"/><use transform="matrix(0.007595486111111111,0,0,0.007595486111111111,33.68598090277778,0)" xlink:href="#bn"/><use transform="matrix(0.007595486111111111,0,0,0.007595486111111111,46.69704861111111,0)" xlink:href="#bo"/><use transform="matrix(0.007595486111111111,0,0,0.007595486111111111,56.236979166666664,0)" xlink:href="#bp"/><use transform="matrix(0.007595486111111111,0,0,0.007595486111111111,62.19184027777777,0)" xlink:href="#bq"/></g><path fill="#e81313" d="M428-647V0H128v-1490h294v586c65-146 175-228 341-228 232 0 385 159 385 421V0H847v-659c0-139-76-222-202-222-128 0-217 86-217 234" id="br"/><path fill="#e81313" d="M754 19C571 19 479-89 437-179h-14V0H128v-1490h300v560h9c41-89 129-202 319-202 248 0 453 193 453 575 0 372-197 576-455 576zm-92-241c156 0 240-139 240-336 0-196-83-334-240-334-154 0-241 131-241 334 0 202 88 336 241 336" id="bs"/><g id="M"><use transform="matrix(0.007595486111111111,0,0,0.007595486111111111,0,0)" xlink:href="#br"/><use transform="matrix(0.007595486111111111,0,0,0.007595486111111111,9.418402777777777,0)" xlink:href="#bl"/><use transform="matrix(0.007595486111111111,0,0,0.007595486111111111,18.821614583333332,0)" xlink:href="#bs"/><use transform="matrix(0.007595486111111111,0,0,0.007595486111111111,28.62738715277778,0)" xlink:href="#bp"/><use transform="matrix(0.007595486111111111,0,0,0.007595486111111111,35.075954861111114,0)" xlink:href="#aF"/><use transform="matrix(0.007595486111111111,0,0,0.007595486111111111,39.29144965277778,0)" xlink:href="#bq"/></g></defs></g></svg>